G04*
G04 #@! TF.GenerationSoftware,Altium Limited,Altium Designer,21.3.2 (30)*
G04*
G04 Layer_Color=32896*
%FSTAX24Y24*%
%MOIN*%
G70*
G04*
G04 #@! TF.SameCoordinates,0193B93B-ADE4-4E0C-A68A-37D7C30EBFC0*
G04*
G04*
G04 #@! TF.FilePolarity,Positive*
G04*
G01*
G75*
G36*
X020788Y036399D02*
X020787D01*
X020784Y036406D01*
X020786D01*
X020788Y036401D01*
X02079Y036406D01*
X020791D01*
X020788Y036399D01*
D02*
G37*
G36*
X020793Y036397D02*
X020786Y036395D01*
X020785Y036394D01*
X020785Y036394D01*
X020785Y036394D01*
X020784Y036394D01*
X020784D01*
X020784Y036394D01*
X020785Y036394D01*
X020786Y036394D01*
X020793Y036391D01*
Y036389D01*
X020783Y036393D01*
Y036395D01*
X020793Y036399D01*
Y036397D01*
D02*
G37*
G36*
Y036386D02*
Y036384D01*
X020783Y03638D01*
Y036382D01*
X020786Y036383D01*
Y036387D01*
X020783Y036388D01*
Y036389D01*
X020793Y036386D01*
D02*
G37*
G36*
Y036378D02*
X020784D01*
Y036373D01*
X020783D01*
Y036379D01*
X020793D01*
Y036378D01*
D02*
G37*
G36*
Y03637D02*
X020787D01*
X020787D01*
X020787D01*
X020786D01*
X020786Y03637D01*
X020785Y03637D01*
X020785D01*
X020785Y03637D01*
X020785Y03637D01*
X020784Y036369D01*
Y036369D01*
X020784Y036369D01*
X020784Y036368D01*
X020784Y036368D01*
Y036367D01*
X020784Y036367D01*
X020784Y036366D01*
X020785Y036366D01*
X020785Y036366D01*
X020785Y036365D01*
X020785Y036365D01*
X020786Y036365D01*
X020786Y036365D01*
X020787D01*
X020793D01*
Y036364D01*
X020787D01*
X020787D01*
X020787D01*
X020786D01*
X020785Y036364D01*
X020785Y036364D01*
X020785Y036364D01*
X020784Y036364D01*
X020784Y036365D01*
X020783Y036365D01*
X020783Y036365D01*
X020783Y036366D01*
X020783Y036367D01*
X020783Y036368D01*
Y036368D01*
X020783Y036368D01*
X020783Y036369D01*
X020783Y03637D01*
X020783Y03637D01*
X020784Y03637D01*
X020784Y036371D01*
X020785Y036371D01*
X020785D01*
X020785Y036371D01*
X020786Y036371D01*
X020787Y036371D01*
X020793D01*
Y03637D01*
D02*
G37*
G36*
Y036354D02*
X020792D01*
Y03636D01*
X020789D01*
Y036355D01*
X020787D01*
Y03636D01*
X020784D01*
Y036354D01*
X020783D01*
Y036361D01*
X020793D01*
Y036354D01*
D02*
G37*
G36*
X020788Y037199D02*
X020787D01*
X020784Y037206D01*
X020786D01*
X020788Y037201D01*
X02079Y037206D01*
X020791D01*
X020788Y037199D01*
D02*
G37*
G36*
X020793Y037197D02*
X020786Y037195D01*
X020785Y037194D01*
X020785Y037194D01*
X020785Y037194D01*
X020784Y037194D01*
X020784D01*
X020784Y037194D01*
X020785Y037194D01*
X020786Y037194D01*
X020793Y037191D01*
Y037189D01*
X020783Y037193D01*
Y037195D01*
X020793Y037199D01*
Y037197D01*
D02*
G37*
G36*
Y037186D02*
Y037184D01*
X020783Y03718D01*
Y037182D01*
X020786Y037183D01*
Y037187D01*
X020783Y037188D01*
Y037189D01*
X020793Y037186D01*
D02*
G37*
G36*
Y037178D02*
X020784D01*
Y037173D01*
X020783D01*
Y037179D01*
X020793D01*
Y037178D01*
D02*
G37*
G36*
Y03717D02*
X020787D01*
X020787D01*
X020787D01*
X020786D01*
X020786Y03717D01*
X020785Y03717D01*
X020785D01*
X020785Y03717D01*
X020785Y03717D01*
X020784Y037169D01*
Y037169D01*
X020784Y037169D01*
X020784Y037168D01*
X020784Y037168D01*
Y037167D01*
X020784Y037167D01*
X020784Y037166D01*
X020785Y037166D01*
X020785Y037166D01*
X020785Y037165D01*
X020785Y037165D01*
X020786Y037165D01*
X020786Y037165D01*
X020787D01*
X020793D01*
Y037164D01*
X020787D01*
X020787D01*
X020787D01*
X020786D01*
X020785Y037164D01*
X020785Y037164D01*
X020785Y037164D01*
X020784Y037164D01*
X020784Y037165D01*
X020783Y037165D01*
X020783Y037165D01*
X020783Y037166D01*
X020783Y037167D01*
X020783Y037168D01*
Y037168D01*
X020783Y037168D01*
X020783Y037169D01*
X020783Y03717D01*
X020783Y03717D01*
X020784Y03717D01*
X020784Y037171D01*
X020785Y037171D01*
X020785D01*
X020785Y037171D01*
X020786Y037171D01*
X020787Y037171D01*
X020793D01*
Y03717D01*
D02*
G37*
G36*
Y037154D02*
X020792D01*
Y03716D01*
X020789D01*
Y037155D01*
X020787D01*
Y03716D01*
X020784D01*
Y037154D01*
X020783D01*
Y037161D01*
X020793D01*
Y037154D01*
D02*
G37*
G36*
X020798Y041109D02*
X020797D01*
X020794Y041116D01*
X020796D01*
X020798Y041111D01*
X0208Y041116D01*
X020801D01*
X020798Y041109D01*
D02*
G37*
G36*
X020803Y041107D02*
X020796Y041105D01*
X020795Y041104D01*
X020795Y041104D01*
X020795Y041104D01*
X020794Y041104D01*
X020794D01*
X020794Y041104D01*
X020795Y041104D01*
X020796Y041104D01*
X020803Y041101D01*
Y041099D01*
X020793Y041103D01*
Y041105D01*
X020803Y041109D01*
Y041107D01*
D02*
G37*
G36*
Y041096D02*
Y041094D01*
X020793Y04109D01*
Y041092D01*
X020796Y041093D01*
Y041097D01*
X020793Y041098D01*
Y041099D01*
X020803Y041096D01*
D02*
G37*
G36*
Y041088D02*
X020794D01*
Y041083D01*
X020793D01*
Y041089D01*
X020803D01*
Y041088D01*
D02*
G37*
G36*
Y04108D02*
X020797D01*
X020797D01*
X020797D01*
X020796D01*
X020796Y04108D01*
X020795Y04108D01*
X020795D01*
X020795Y04108D01*
X020795Y04108D01*
X020794Y041079D01*
Y041079D01*
X020794Y041079D01*
X020794Y041078D01*
X020794Y041078D01*
Y041077D01*
X020794Y041077D01*
X020794Y041076D01*
X020795Y041076D01*
X020795Y041076D01*
X020795Y041075D01*
X020795Y041075D01*
X020796Y041075D01*
X020796Y041075D01*
X020797D01*
X020803D01*
Y041074D01*
X020797D01*
X020797D01*
X020797D01*
X020796D01*
X020795Y041074D01*
X020795Y041074D01*
X020795Y041074D01*
X020794Y041074D01*
X020794Y041075D01*
X020793Y041075D01*
X020793Y041075D01*
X020793Y041076D01*
X020793Y041077D01*
X020793Y041078D01*
Y041078D01*
X020793Y041078D01*
X020793Y041079D01*
X020793Y04108D01*
X020793Y04108D01*
X020794Y04108D01*
X020794Y041081D01*
X020795Y041081D01*
X020795D01*
X020795Y041081D01*
X020796Y041081D01*
X020797Y041081D01*
X020803D01*
Y04108D01*
D02*
G37*
G36*
Y041064D02*
X020802D01*
Y04107D01*
X020799D01*
Y041065D01*
X020797D01*
Y04107D01*
X020794D01*
Y041064D01*
X020793D01*
Y041071D01*
X020803D01*
Y041064D01*
D02*
G37*
G36*
X020808Y041109D02*
X020807D01*
X020804Y041116D01*
X020806D01*
X020808Y041111D01*
X02081Y041116D01*
X020811D01*
X020808Y041109D01*
D02*
G37*
G36*
X020813Y041107D02*
X020806Y041105D01*
X020805Y041104D01*
X020805Y041104D01*
X020805Y041104D01*
X020804Y041104D01*
X020804D01*
X020804Y041104D01*
X020805Y041104D01*
X020806Y041104D01*
X020813Y041101D01*
Y041099D01*
X020803Y041103D01*
Y041105D01*
X020813Y041109D01*
Y041107D01*
D02*
G37*
G36*
Y041096D02*
Y041094D01*
X020803Y04109D01*
Y041092D01*
X020806Y041093D01*
Y041097D01*
X020803Y041098D01*
Y041099D01*
X020813Y041096D01*
D02*
G37*
G36*
Y041088D02*
X020804D01*
Y041083D01*
X020803D01*
Y041089D01*
X020813D01*
Y041088D01*
D02*
G37*
G36*
Y04108D02*
X020807D01*
X020807D01*
X020807D01*
X020806D01*
X020806Y04108D01*
X020805Y04108D01*
X020805D01*
X020805Y04108D01*
X020805Y04108D01*
X020804Y041079D01*
Y041079D01*
X020804Y041079D01*
X020804Y041078D01*
X020804Y041078D01*
Y041077D01*
X020804Y041077D01*
X020804Y041076D01*
X020805Y041076D01*
X020805Y041076D01*
X020805Y041075D01*
X020805Y041075D01*
X020806Y041075D01*
X020806Y041075D01*
X020807D01*
X020813D01*
Y041074D01*
X020807D01*
X020807D01*
X020807D01*
X020806D01*
X020805Y041074D01*
X020805Y041074D01*
X020805Y041074D01*
X020804Y041074D01*
X020804Y041075D01*
X020803Y041075D01*
X020803Y041075D01*
X020803Y041076D01*
X020803Y041077D01*
X020803Y041078D01*
Y041078D01*
X020803Y041078D01*
X020803Y041079D01*
X020803Y04108D01*
X020803Y04108D01*
X020804Y04108D01*
X020804Y041081D01*
X020805Y041081D01*
X020805D01*
X020805Y041081D01*
X020806Y041081D01*
X020807Y041081D01*
X020813D01*
Y04108D01*
D02*
G37*
G36*
Y041064D02*
X020812D01*
Y04107D01*
X020809D01*
Y041065D01*
X020807D01*
Y04107D01*
X020804D01*
Y041064D01*
X020803D01*
Y041071D01*
X020813D01*
Y041064D01*
D02*
G37*
G36*
X020808Y040329D02*
X020807D01*
X020804Y040336D01*
X020806D01*
X020808Y040331D01*
X02081Y040336D01*
X020811D01*
X020808Y040329D01*
D02*
G37*
G36*
X020813Y040327D02*
X020806Y040325D01*
X020805Y040324D01*
X020805Y040324D01*
X020805Y040324D01*
X020804Y040324D01*
X020804D01*
X020804Y040324D01*
X020805Y040324D01*
X020806Y040324D01*
X020813Y040321D01*
Y040319D01*
X020803Y040323D01*
Y040325D01*
X020813Y040329D01*
Y040327D01*
D02*
G37*
G36*
Y040316D02*
Y040314D01*
X020803Y04031D01*
Y040312D01*
X020806Y040313D01*
Y040317D01*
X020803Y040318D01*
Y040319D01*
X020813Y040316D01*
D02*
G37*
G36*
Y040308D02*
X020804D01*
Y040303D01*
X020803D01*
Y040309D01*
X020813D01*
Y040308D01*
D02*
G37*
G36*
Y0403D02*
X020807D01*
X020807D01*
X020807D01*
X020806D01*
X020806Y0403D01*
X020805Y0403D01*
X020805D01*
X020805Y0403D01*
X020805Y0403D01*
X020804Y040299D01*
Y040299D01*
X020804Y040299D01*
X020804Y040298D01*
X020804Y040298D01*
Y040297D01*
X020804Y040297D01*
X020804Y040296D01*
X020805Y040296D01*
X020805Y040296D01*
X020805Y040295D01*
X020805Y040295D01*
X020806Y040295D01*
X020806Y040295D01*
X020807D01*
X020813D01*
Y040294D01*
X020807D01*
X020807D01*
X020807D01*
X020806D01*
X020805Y040294D01*
X020805Y040294D01*
X020805Y040294D01*
X020804Y040294D01*
X020804Y040295D01*
X020803Y040295D01*
X020803Y040295D01*
X020803Y040296D01*
X020803Y040297D01*
X020803Y040298D01*
Y040298D01*
X020803Y040298D01*
X020803Y040299D01*
X020803Y0403D01*
X020803Y0403D01*
X020804Y0403D01*
X020804Y040301D01*
X020805Y040301D01*
X020805D01*
X020805Y040301D01*
X020806Y040301D01*
X020807Y040301D01*
X020813D01*
Y0403D01*
D02*
G37*
G36*
Y040284D02*
X020812D01*
Y04029D01*
X020809D01*
Y040285D01*
X020807D01*
Y04029D01*
X020804D01*
Y040284D01*
X020803D01*
Y040291D01*
X020813D01*
Y040284D01*
D02*
G37*
G36*
X020808Y039539D02*
X020807D01*
X020804Y039546D01*
X020806D01*
X020808Y039541D01*
X02081Y039546D01*
X020811D01*
X020808Y039539D01*
D02*
G37*
G36*
X020813Y039537D02*
X020806Y039535D01*
X020805Y039534D01*
X020805Y039534D01*
X020805Y039534D01*
X020804Y039534D01*
X020804D01*
X020804Y039534D01*
X020805Y039534D01*
X020806Y039534D01*
X020813Y039531D01*
Y039529D01*
X020803Y039533D01*
Y039535D01*
X020813Y039539D01*
Y039537D01*
D02*
G37*
G36*
Y039526D02*
Y039524D01*
X020803Y03952D01*
Y039522D01*
X020806Y039523D01*
Y039527D01*
X020803Y039528D01*
Y039529D01*
X020813Y039526D01*
D02*
G37*
G36*
Y039518D02*
X020804D01*
Y039513D01*
X020803D01*
Y039519D01*
X020813D01*
Y039518D01*
D02*
G37*
G36*
Y03951D02*
X020807D01*
X020807D01*
X020807D01*
X020806D01*
X020806Y03951D01*
X020805Y03951D01*
X020805D01*
X020805Y03951D01*
X020805Y03951D01*
X020804Y039509D01*
Y039509D01*
X020804Y039509D01*
X020804Y039508D01*
X020804Y039508D01*
Y039507D01*
X020804Y039507D01*
X020804Y039506D01*
X020805Y039506D01*
X020805Y039506D01*
X020805Y039505D01*
X020805Y039505D01*
X020806Y039505D01*
X020806Y039505D01*
X020807D01*
X020813D01*
Y039504D01*
X020807D01*
X020807D01*
X020807D01*
X020806D01*
X020805Y039504D01*
X020805Y039504D01*
X020805Y039504D01*
X020804Y039504D01*
X020804Y039505D01*
X020803Y039505D01*
X020803Y039505D01*
X020803Y039506D01*
X020803Y039507D01*
X020803Y039508D01*
Y039508D01*
X020803Y039508D01*
X020803Y039509D01*
X020803Y03951D01*
X020803Y03951D01*
X020804Y03951D01*
X020804Y039511D01*
X020805Y039511D01*
X020805D01*
X020805Y039511D01*
X020806Y039511D01*
X020807Y039511D01*
X020813D01*
Y03951D01*
D02*
G37*
G36*
Y039494D02*
X020812D01*
Y0395D01*
X020809D01*
Y039495D01*
X020807D01*
Y0395D01*
X020804D01*
Y039494D01*
X020803D01*
Y039501D01*
X020813D01*
Y039494D01*
D02*
G37*
G36*
X020808Y038749D02*
X020807D01*
X020804Y038756D01*
X020806D01*
X020808Y038751D01*
X02081Y038756D01*
X020811D01*
X020808Y038749D01*
D02*
G37*
G36*
X020813Y038747D02*
X020806Y038745D01*
X020805Y038744D01*
X020805Y038744D01*
X020805Y038744D01*
X020804Y038744D01*
X020804D01*
X020804Y038744D01*
X020805Y038744D01*
X020806Y038744D01*
X020813Y038741D01*
Y038739D01*
X020803Y038743D01*
Y038745D01*
X020813Y038749D01*
Y038747D01*
D02*
G37*
G36*
Y038736D02*
Y038734D01*
X020803Y03873D01*
Y038732D01*
X020806Y038733D01*
Y038737D01*
X020803Y038738D01*
Y038739D01*
X020813Y038736D01*
D02*
G37*
G36*
Y038728D02*
X020804D01*
Y038723D01*
X020803D01*
Y038729D01*
X020813D01*
Y038728D01*
D02*
G37*
G36*
Y03872D02*
X020807D01*
X020807D01*
X020807D01*
X020806D01*
X020806Y03872D01*
X020805Y03872D01*
X020805D01*
X020805Y03872D01*
X020805Y03872D01*
X020804Y038719D01*
Y038719D01*
X020804Y038719D01*
X020804Y038718D01*
X020804Y038718D01*
Y038717D01*
X020804Y038717D01*
X020804Y038716D01*
X020805Y038716D01*
X020805Y038716D01*
X020805Y038715D01*
X020805Y038715D01*
X020806Y038715D01*
X020806Y038715D01*
X020807D01*
X020813D01*
Y038714D01*
X020807D01*
X020807D01*
X020807D01*
X020806D01*
X020805Y038714D01*
X020805Y038714D01*
X020805Y038714D01*
X020804Y038714D01*
X020804Y038715D01*
X020803Y038715D01*
X020803Y038715D01*
X020803Y038716D01*
X020803Y038717D01*
X020803Y038718D01*
Y038718D01*
X020803Y038718D01*
X020803Y038719D01*
X020803Y03872D01*
X020803Y03872D01*
X020804Y03872D01*
X020804Y038721D01*
X020805Y038721D01*
X020805D01*
X020805Y038721D01*
X020806Y038721D01*
X020807Y038721D01*
X020813D01*
Y03872D01*
D02*
G37*
G36*
Y038704D02*
X020812D01*
Y03871D01*
X020809D01*
Y038705D01*
X020807D01*
Y03871D01*
X020804D01*
Y038704D01*
X020803D01*
Y038711D01*
X020813D01*
Y038704D01*
D02*
G37*
G36*
X020808Y037959D02*
X020807D01*
X020804Y037966D01*
X020806D01*
X020808Y037961D01*
X02081Y037966D01*
X020811D01*
X020808Y037959D01*
D02*
G37*
G36*
X020813Y037957D02*
X020806Y037955D01*
X020805Y037954D01*
X020805Y037954D01*
X020805Y037954D01*
X020804Y037954D01*
X020804D01*
X020804Y037954D01*
X020805Y037954D01*
X020806Y037954D01*
X020813Y037951D01*
Y037949D01*
X020803Y037953D01*
Y037955D01*
X020813Y037959D01*
Y037957D01*
D02*
G37*
G36*
Y037946D02*
Y037944D01*
X020803Y03794D01*
Y037942D01*
X020806Y037943D01*
Y037947D01*
X020803Y037948D01*
Y037949D01*
X020813Y037946D01*
D02*
G37*
G36*
Y037938D02*
X020804D01*
Y037933D01*
X020803D01*
Y037939D01*
X020813D01*
Y037938D01*
D02*
G37*
G36*
Y03793D02*
X020807D01*
X020807D01*
X020807D01*
X020806D01*
X020806Y03793D01*
X020805Y03793D01*
X020805D01*
X020805Y03793D01*
X020805Y03793D01*
X020804Y037929D01*
Y037929D01*
X020804Y037929D01*
X020804Y037928D01*
X020804Y037928D01*
Y037927D01*
X020804Y037927D01*
X020804Y037926D01*
X020805Y037926D01*
X020805Y037926D01*
X020805Y037925D01*
X020805Y037925D01*
X020806Y037925D01*
X020806Y037925D01*
X020807D01*
X020813D01*
Y037924D01*
X020807D01*
X020807D01*
X020807D01*
X020806D01*
X020805Y037924D01*
X020805Y037924D01*
X020805Y037924D01*
X020804Y037924D01*
X020804Y037925D01*
X020803Y037925D01*
X020803Y037925D01*
X020803Y037926D01*
X020803Y037927D01*
X020803Y037928D01*
Y037928D01*
X020803Y037928D01*
X020803Y037929D01*
X020803Y03793D01*
X020803Y03793D01*
X020804Y03793D01*
X020804Y037931D01*
X020805Y037931D01*
X020805D01*
X020805Y037931D01*
X020806Y037931D01*
X020807Y037931D01*
X020813D01*
Y03793D01*
D02*
G37*
G36*
Y037914D02*
X020812D01*
Y03792D01*
X020809D01*
Y037915D01*
X020807D01*
Y03792D01*
X020804D01*
Y037914D01*
X020803D01*
Y037921D01*
X020813D01*
Y037914D01*
D02*
G37*
G36*
X020808Y037179D02*
X020807D01*
X020804Y037186D01*
X020806D01*
X020808Y037181D01*
X02081Y037186D01*
X020811D01*
X020808Y037179D01*
D02*
G37*
G36*
X020813Y037177D02*
X020806Y037175D01*
X020805Y037174D01*
X020805Y037174D01*
X020805Y037174D01*
X020804Y037174D01*
X020804D01*
X020804Y037174D01*
X020805Y037174D01*
X020806Y037174D01*
X020813Y037171D01*
Y037169D01*
X020803Y037173D01*
Y037175D01*
X020813Y037179D01*
Y037177D01*
D02*
G37*
G36*
Y037166D02*
Y037164D01*
X020803Y03716D01*
Y037162D01*
X020806Y037163D01*
Y037167D01*
X020803Y037168D01*
Y037169D01*
X020813Y037166D01*
D02*
G37*
G36*
Y037158D02*
X020804D01*
Y037153D01*
X020803D01*
Y037159D01*
X020813D01*
Y037158D01*
D02*
G37*
G36*
Y03715D02*
X020807D01*
X020807D01*
X020807D01*
X020806D01*
X020806Y03715D01*
X020805Y03715D01*
X020805D01*
X020805Y03715D01*
X020805Y03715D01*
X020804Y037149D01*
Y037149D01*
X020804Y037149D01*
X020804Y037148D01*
X020804Y037148D01*
Y037147D01*
X020804Y037147D01*
X020804Y037146D01*
X020805Y037146D01*
X020805Y037146D01*
X020805Y037145D01*
X020805Y037145D01*
X020806Y037145D01*
X020806Y037145D01*
X020807D01*
X020813D01*
Y037144D01*
X020807D01*
X020807D01*
X020807D01*
X020806D01*
X020805Y037144D01*
X020805Y037144D01*
X020805Y037144D01*
X020804Y037144D01*
X020804Y037145D01*
X020803Y037145D01*
X020803Y037145D01*
X020803Y037146D01*
X020803Y037147D01*
X020803Y037148D01*
Y037148D01*
X020803Y037148D01*
X020803Y037149D01*
X020803Y03715D01*
X020803Y03715D01*
X020804Y03715D01*
X020804Y037151D01*
X020805Y037151D01*
X020805D01*
X020805Y037151D01*
X020806Y037151D01*
X020807Y037151D01*
X020813D01*
Y03715D01*
D02*
G37*
G36*
Y037134D02*
X020812D01*
Y03714D01*
X020809D01*
Y037135D01*
X020807D01*
Y03714D01*
X020804D01*
Y037134D01*
X020803D01*
Y037141D01*
X020813D01*
Y037134D01*
D02*
G37*
G36*
X020808Y036389D02*
X020807D01*
X020804Y036396D01*
X020806D01*
X020808Y036391D01*
X02081Y036396D01*
X020811D01*
X020808Y036389D01*
D02*
G37*
G36*
X020813Y036387D02*
X020806Y036385D01*
X020805Y036384D01*
X020805Y036384D01*
X020805Y036384D01*
X020804Y036384D01*
X020804D01*
X020804Y036384D01*
X020805Y036384D01*
X020806Y036384D01*
X020813Y036381D01*
Y036379D01*
X020803Y036383D01*
Y036385D01*
X020813Y036389D01*
Y036387D01*
D02*
G37*
G36*
Y036376D02*
Y036374D01*
X020803Y03637D01*
Y036372D01*
X020806Y036373D01*
Y036377D01*
X020803Y036378D01*
Y036379D01*
X020813Y036376D01*
D02*
G37*
G36*
Y036368D02*
X020804D01*
Y036363D01*
X020803D01*
Y036369D01*
X020813D01*
Y036368D01*
D02*
G37*
G36*
Y03636D02*
X020807D01*
X020807D01*
X020807D01*
X020806D01*
X020806Y03636D01*
X020805Y03636D01*
X020805D01*
X020805Y03636D01*
X020805Y03636D01*
X020804Y036359D01*
Y036359D01*
X020804Y036359D01*
X020804Y036358D01*
X020804Y036358D01*
Y036357D01*
X020804Y036357D01*
X020804Y036356D01*
X020805Y036356D01*
X020805Y036356D01*
X020805Y036355D01*
X020805Y036355D01*
X020806Y036355D01*
X020806Y036355D01*
X020807D01*
X020813D01*
Y036354D01*
X020807D01*
X020807D01*
X020807D01*
X020806D01*
X020805Y036354D01*
X020805Y036354D01*
X020805Y036354D01*
X020804Y036354D01*
X020804Y036355D01*
X020803Y036355D01*
X020803Y036355D01*
X020803Y036356D01*
X020803Y036357D01*
X020803Y036358D01*
Y036358D01*
X020803Y036358D01*
X020803Y036359D01*
X020803Y03636D01*
X020803Y03636D01*
X020804Y03636D01*
X020804Y036361D01*
X020805Y036361D01*
X020805D01*
X020805Y036361D01*
X020806Y036361D01*
X020807Y036361D01*
X020813D01*
Y03636D01*
D02*
G37*
G36*
Y036344D02*
X020812D01*
Y03635D01*
X020809D01*
Y036345D01*
X020807D01*
Y03635D01*
X020804D01*
Y036344D01*
X020803D01*
Y036351D01*
X020813D01*
Y036344D01*
D02*
G37*
G36*
X013718Y039139D02*
X013717D01*
X013714Y039146D01*
X013716D01*
X013718Y039141D01*
X01372Y039146D01*
X013721D01*
X013718Y039139D01*
D02*
G37*
G36*
X013723Y039137D02*
X013716Y039135D01*
X013715Y039134D01*
X013715Y039134D01*
X013715Y039134D01*
X013714Y039134D01*
X013714D01*
X013714Y039134D01*
X013715Y039134D01*
X013716Y039134D01*
X013723Y039131D01*
Y039129D01*
X013713Y039133D01*
Y039135D01*
X013723Y039139D01*
Y039137D01*
D02*
G37*
G36*
Y039126D02*
Y039124D01*
X013713Y03912D01*
Y039122D01*
X013716Y039123D01*
Y039127D01*
X013713Y039128D01*
Y039129D01*
X013723Y039126D01*
D02*
G37*
G36*
Y039118D02*
X013714D01*
Y039113D01*
X013713D01*
Y039119D01*
X013723D01*
Y039118D01*
D02*
G37*
G36*
Y03911D02*
X013717D01*
X013717D01*
X013717D01*
X013716D01*
X013716Y03911D01*
X013715Y03911D01*
X013715D01*
X013715Y03911D01*
X013715Y03911D01*
X013714Y039109D01*
Y039109D01*
X013714Y039109D01*
X013714Y039108D01*
X013714Y039108D01*
Y039107D01*
X013714Y039107D01*
X013714Y039106D01*
X013715Y039106D01*
X013715Y039106D01*
X013715Y039105D01*
X013715Y039105D01*
X013716Y039105D01*
X013716Y039105D01*
X013717D01*
X013723D01*
Y039104D01*
X013717D01*
X013717D01*
X013717D01*
X013716D01*
X013715Y039104D01*
X013715Y039104D01*
X013715Y039104D01*
X013714Y039104D01*
X013714Y039105D01*
X013713Y039105D01*
X013713Y039105D01*
X013713Y039106D01*
X013713Y039107D01*
X013713Y039108D01*
Y039108D01*
X013713Y039108D01*
X013713Y039109D01*
X013713Y03911D01*
X013713Y03911D01*
X013714Y03911D01*
X013714Y039111D01*
X013715Y039111D01*
X013715D01*
X013715Y039111D01*
X013716Y039111D01*
X013717Y039111D01*
X013723D01*
Y03911D01*
D02*
G37*
G36*
Y039094D02*
X013722D01*
Y0391D01*
X013719D01*
Y039095D01*
X013717D01*
Y0391D01*
X013714D01*
Y039094D01*
X013713D01*
Y039101D01*
X013723D01*
Y039094D01*
D02*
G37*
G36*
X013718Y039929D02*
X013717D01*
X013714Y039936D01*
X013716D01*
X013718Y039931D01*
X01372Y039936D01*
X013721D01*
X013718Y039929D01*
D02*
G37*
G36*
X013723Y039927D02*
X013716Y039925D01*
X013715Y039924D01*
X013715Y039924D01*
X013715Y039924D01*
X013714Y039924D01*
X013714D01*
X013714Y039924D01*
X013715Y039924D01*
X013716Y039924D01*
X013723Y039921D01*
Y039919D01*
X013713Y039923D01*
Y039925D01*
X013723Y039929D01*
Y039927D01*
D02*
G37*
G36*
Y039916D02*
Y039914D01*
X013713Y03991D01*
Y039912D01*
X013716Y039913D01*
Y039917D01*
X013713Y039918D01*
Y039919D01*
X013723Y039916D01*
D02*
G37*
G36*
Y039908D02*
X013714D01*
Y039903D01*
X013713D01*
Y039909D01*
X013723D01*
Y039908D01*
D02*
G37*
G36*
Y0399D02*
X013717D01*
X013717D01*
X013717D01*
X013716D01*
X013716Y0399D01*
X013715Y0399D01*
X013715D01*
X013715Y0399D01*
X013715Y0399D01*
X013714Y039899D01*
Y039899D01*
X013714Y039899D01*
X013714Y039898D01*
X013714Y039898D01*
Y039897D01*
X013714Y039897D01*
X013714Y039896D01*
X013715Y039896D01*
X013715Y039896D01*
X013715Y039895D01*
X013715Y039895D01*
X013716Y039895D01*
X013716Y039895D01*
X013717D01*
X013723D01*
Y039894D01*
X013717D01*
X013717D01*
X013717D01*
X013716D01*
X013715Y039894D01*
X013715Y039894D01*
X013715Y039894D01*
X013714Y039894D01*
X013714Y039895D01*
X013713Y039895D01*
X013713Y039895D01*
X013713Y039896D01*
X013713Y039897D01*
X013713Y039898D01*
Y039898D01*
X013713Y039898D01*
X013713Y039899D01*
X013713Y0399D01*
X013713Y0399D01*
X013714Y0399D01*
X013714Y039901D01*
X013715Y039901D01*
X013715D01*
X013715Y039901D01*
X013716Y039901D01*
X013717Y039901D01*
X013723D01*
Y0399D01*
D02*
G37*
G36*
Y039884D02*
X013722D01*
Y03989D01*
X013719D01*
Y039885D01*
X013717D01*
Y03989D01*
X013714D01*
Y039884D01*
X013713D01*
Y039891D01*
X013723D01*
Y039884D01*
D02*
G37*
G36*
X013718Y040709D02*
X013717D01*
X013714Y040716D01*
X013716D01*
X013718Y040711D01*
X01372Y040716D01*
X013721D01*
X013718Y040709D01*
D02*
G37*
G36*
X013723Y040707D02*
X013716Y040705D01*
X013715Y040704D01*
X013715Y040704D01*
X013715Y040704D01*
X013714Y040704D01*
X013714D01*
X013714Y040704D01*
X013715Y040704D01*
X013716Y040704D01*
X013723Y040701D01*
Y040699D01*
X013713Y040703D01*
Y040705D01*
X013723Y040709D01*
Y040707D01*
D02*
G37*
G36*
Y040696D02*
Y040694D01*
X013713Y04069D01*
Y040692D01*
X013716Y040693D01*
Y040697D01*
X013713Y040698D01*
Y040699D01*
X013723Y040696D01*
D02*
G37*
G36*
Y040688D02*
X013714D01*
Y040683D01*
X013713D01*
Y040689D01*
X013723D01*
Y040688D01*
D02*
G37*
G36*
Y04068D02*
X013717D01*
X013717D01*
X013717D01*
X013716D01*
X013716Y04068D01*
X013715Y04068D01*
X013715D01*
X013715Y04068D01*
X013715Y04068D01*
X013714Y040679D01*
Y040679D01*
X013714Y040679D01*
X013714Y040678D01*
X013714Y040678D01*
Y040677D01*
X013714Y040677D01*
X013714Y040676D01*
X013715Y040676D01*
X013715Y040676D01*
X013715Y040675D01*
X013715Y040675D01*
X013716Y040675D01*
X013716Y040675D01*
X013717D01*
X013723D01*
Y040674D01*
X013717D01*
X013717D01*
X013717D01*
X013716D01*
X013715Y040674D01*
X013715Y040674D01*
X013715Y040674D01*
X013714Y040674D01*
X013714Y040675D01*
X013713Y040675D01*
X013713Y040675D01*
X013713Y040676D01*
X013713Y040677D01*
X013713Y040678D01*
Y040678D01*
X013713Y040678D01*
X013713Y040679D01*
X013713Y04068D01*
X013713Y04068D01*
X013714Y04068D01*
X013714Y040681D01*
X013715Y040681D01*
X013715D01*
X013715Y040681D01*
X013716Y040681D01*
X013717Y040681D01*
X013723D01*
Y04068D01*
D02*
G37*
G36*
Y040664D02*
X013722D01*
Y04067D01*
X013719D01*
Y040665D01*
X013717D01*
Y04067D01*
X013714D01*
Y040664D01*
X013713D01*
Y040671D01*
X013723D01*
Y040664D01*
D02*
G37*
G36*
X013718Y041499D02*
X013717D01*
X013714Y041506D01*
X013716D01*
X013718Y041501D01*
X01372Y041506D01*
X013721D01*
X013718Y041499D01*
D02*
G37*
G36*
X013723Y041497D02*
X013716Y041495D01*
X013715Y041494D01*
X013715Y041494D01*
X013715Y041494D01*
X013714Y041494D01*
X013714D01*
X013714Y041494D01*
X013715Y041494D01*
X013716Y041494D01*
X013723Y041491D01*
Y041489D01*
X013713Y041493D01*
Y041495D01*
X013723Y041499D01*
Y041497D01*
D02*
G37*
G36*
Y041486D02*
Y041484D01*
X013713Y04148D01*
Y041482D01*
X013716Y041483D01*
Y041487D01*
X013713Y041488D01*
Y041489D01*
X013723Y041486D01*
D02*
G37*
G36*
Y041478D02*
X013714D01*
Y041473D01*
X013713D01*
Y041479D01*
X013723D01*
Y041478D01*
D02*
G37*
G36*
Y04147D02*
X013717D01*
X013717D01*
X013717D01*
X013716D01*
X013716Y04147D01*
X013715Y04147D01*
X013715D01*
X013715Y04147D01*
X013715Y04147D01*
X013714Y041469D01*
Y041469D01*
X013714Y041469D01*
X013714Y041468D01*
X013714Y041468D01*
Y041467D01*
X013714Y041467D01*
X013714Y041466D01*
X013715Y041466D01*
X013715Y041466D01*
X013715Y041465D01*
X013715Y041465D01*
X013716Y041465D01*
X013716Y041465D01*
X013717D01*
X013723D01*
Y041464D01*
X013717D01*
X013717D01*
X013717D01*
X013716D01*
X013715Y041464D01*
X013715Y041464D01*
X013715Y041464D01*
X013714Y041464D01*
X013714Y041465D01*
X013713Y041465D01*
X013713Y041465D01*
X013713Y041466D01*
X013713Y041467D01*
X013713Y041468D01*
Y041468D01*
X013713Y041468D01*
X013713Y041469D01*
X013713Y04147D01*
X013713Y04147D01*
X013714Y04147D01*
X013714Y041471D01*
X013715Y041471D01*
X013715D01*
X013715Y041471D01*
X013716Y041471D01*
X013717Y041471D01*
X013723D01*
Y04147D01*
D02*
G37*
G36*
Y041454D02*
X013722D01*
Y04146D01*
X013719D01*
Y041455D01*
X013717D01*
Y04146D01*
X013714D01*
Y041454D01*
X013713D01*
Y041461D01*
X013723D01*
Y041454D01*
D02*
G37*
G36*
X013718Y042289D02*
X013717D01*
X013714Y042296D01*
X013716D01*
X013718Y042291D01*
X01372Y042296D01*
X013721D01*
X013718Y042289D01*
D02*
G37*
G36*
X013723Y042287D02*
X013716Y042285D01*
X013715Y042284D01*
X013715Y042284D01*
X013715Y042284D01*
X013714Y042284D01*
X013714D01*
X013714Y042284D01*
X013715Y042284D01*
X013716Y042284D01*
X013723Y042281D01*
Y042279D01*
X013713Y042283D01*
Y042285D01*
X013723Y042289D01*
Y042287D01*
D02*
G37*
G36*
Y042276D02*
Y042274D01*
X013713Y04227D01*
Y042272D01*
X013716Y042273D01*
Y042277D01*
X013713Y042278D01*
Y042279D01*
X013723Y042276D01*
D02*
G37*
G36*
Y042268D02*
X013714D01*
Y042263D01*
X013713D01*
Y042269D01*
X013723D01*
Y042268D01*
D02*
G37*
G36*
Y04226D02*
X013717D01*
X013717D01*
X013717D01*
X013716D01*
X013716Y04226D01*
X013715Y04226D01*
X013715D01*
X013715Y04226D01*
X013715Y04226D01*
X013714Y042259D01*
Y042259D01*
X013714Y042259D01*
X013714Y042258D01*
X013714Y042258D01*
Y042257D01*
X013714Y042257D01*
X013714Y042256D01*
X013715Y042256D01*
X013715Y042256D01*
X013715Y042255D01*
X013715Y042255D01*
X013716Y042255D01*
X013716Y042255D01*
X013717D01*
X013723D01*
Y042254D01*
X013717D01*
X013717D01*
X013717D01*
X013716D01*
X013715Y042254D01*
X013715Y042254D01*
X013715Y042254D01*
X013714Y042254D01*
X013714Y042255D01*
X013713Y042255D01*
X013713Y042255D01*
X013713Y042256D01*
X013713Y042257D01*
X013713Y042258D01*
Y042258D01*
X013713Y042258D01*
X013713Y042259D01*
X013713Y04226D01*
X013713Y04226D01*
X013714Y04226D01*
X013714Y042261D01*
X013715Y042261D01*
X013715D01*
X013715Y042261D01*
X013716Y042261D01*
X013717Y042261D01*
X013723D01*
Y04226D01*
D02*
G37*
G36*
Y042244D02*
X013722D01*
Y04225D01*
X013719D01*
Y042245D01*
X013717D01*
Y04225D01*
X013714D01*
Y042244D01*
X013713D01*
Y042251D01*
X013723D01*
Y042244D01*
D02*
G37*
G36*
X013718Y043079D02*
X013717D01*
X013714Y043086D01*
X013716D01*
X013718Y043081D01*
X01372Y043086D01*
X013721D01*
X013718Y043079D01*
D02*
G37*
G36*
X013723Y043077D02*
X013716Y043075D01*
X013715Y043074D01*
X013715Y043074D01*
X013715Y043074D01*
X013714Y043074D01*
X013714D01*
X013714Y043074D01*
X013715Y043074D01*
X013716Y043074D01*
X013723Y043071D01*
Y043069D01*
X013713Y043073D01*
Y043075D01*
X013723Y043079D01*
Y043077D01*
D02*
G37*
G36*
Y043066D02*
Y043064D01*
X013713Y04306D01*
Y043062D01*
X013716Y043063D01*
Y043067D01*
X013713Y043068D01*
Y043069D01*
X013723Y043066D01*
D02*
G37*
G36*
Y043058D02*
X013714D01*
Y043053D01*
X013713D01*
Y043059D01*
X013723D01*
Y043058D01*
D02*
G37*
G36*
Y04305D02*
X013717D01*
X013717D01*
X013717D01*
X013716D01*
X013716Y04305D01*
X013715Y04305D01*
X013715D01*
X013715Y04305D01*
X013715Y04305D01*
X013714Y043049D01*
Y043049D01*
X013714Y043049D01*
X013714Y043048D01*
X013714Y043048D01*
Y043047D01*
X013714Y043047D01*
X013714Y043046D01*
X013715Y043046D01*
X013715Y043046D01*
X013715Y043045D01*
X013715Y043045D01*
X013716Y043045D01*
X013716Y043045D01*
X013717D01*
X013723D01*
Y043044D01*
X013717D01*
X013717D01*
X013717D01*
X013716D01*
X013715Y043044D01*
X013715Y043044D01*
X013715Y043044D01*
X013714Y043044D01*
X013714Y043045D01*
X013713Y043045D01*
X013713Y043045D01*
X013713Y043046D01*
X013713Y043047D01*
X013713Y043048D01*
Y043048D01*
X013713Y043048D01*
X013713Y043049D01*
X013713Y04305D01*
X013713Y04305D01*
X013714Y04305D01*
X013714Y043051D01*
X013715Y043051D01*
X013715D01*
X013715Y043051D01*
X013716Y043051D01*
X013717Y043051D01*
X013723D01*
Y04305D01*
D02*
G37*
G36*
Y043034D02*
X013722D01*
Y04304D01*
X013719D01*
Y043035D01*
X013717D01*
Y04304D01*
X013714D01*
Y043034D01*
X013713D01*
Y043041D01*
X013723D01*
Y043034D01*
D02*
G37*
G36*
X013718Y043859D02*
X013717D01*
X013714Y043866D01*
X013716D01*
X013718Y043861D01*
X01372Y043866D01*
X013721D01*
X013718Y043859D01*
D02*
G37*
G36*
X013723Y043857D02*
X013716Y043855D01*
X013715Y043854D01*
X013715Y043854D01*
X013715Y043854D01*
X013714Y043854D01*
X013714D01*
X013714Y043854D01*
X013715Y043854D01*
X013716Y043854D01*
X013723Y043851D01*
Y043849D01*
X013713Y043853D01*
Y043855D01*
X013723Y043859D01*
Y043857D01*
D02*
G37*
G36*
Y043846D02*
Y043844D01*
X013713Y04384D01*
Y043842D01*
X013716Y043843D01*
Y043847D01*
X013713Y043848D01*
Y043849D01*
X013723Y043846D01*
D02*
G37*
G36*
Y043838D02*
X013714D01*
Y043833D01*
X013713D01*
Y043839D01*
X013723D01*
Y043838D01*
D02*
G37*
G36*
Y04383D02*
X013717D01*
X013717D01*
X013717D01*
X013716D01*
X013716Y04383D01*
X013715Y04383D01*
X013715D01*
X013715Y04383D01*
X013715Y04383D01*
X013714Y043829D01*
Y043829D01*
X013714Y043829D01*
X013714Y043828D01*
X013714Y043828D01*
Y043827D01*
X013714Y043827D01*
X013714Y043826D01*
X013715Y043826D01*
X013715Y043826D01*
X013715Y043825D01*
X013715Y043825D01*
X013716Y043825D01*
X013716Y043825D01*
X013717D01*
X013723D01*
Y043824D01*
X013717D01*
X013717D01*
X013717D01*
X013716D01*
X013715Y043824D01*
X013715Y043824D01*
X013715Y043824D01*
X013714Y043824D01*
X013714Y043825D01*
X013713Y043825D01*
X013713Y043825D01*
X013713Y043826D01*
X013713Y043827D01*
X013713Y043828D01*
Y043828D01*
X013713Y043828D01*
X013713Y043829D01*
X013713Y04383D01*
X013713Y04383D01*
X013714Y04383D01*
X013714Y043831D01*
X013715Y043831D01*
X013715D01*
X013715Y043831D01*
X013716Y043831D01*
X013717Y043831D01*
X013723D01*
Y04383D01*
D02*
G37*
G36*
Y043814D02*
X013722D01*
Y04382D01*
X013719D01*
Y043815D01*
X013717D01*
Y04382D01*
X013714D01*
Y043814D01*
X013713D01*
Y043821D01*
X013723D01*
Y043814D01*
D02*
G37*
G36*
X013718Y044649D02*
X013717D01*
X013714Y044656D01*
X013716D01*
X013718Y044651D01*
X01372Y044656D01*
X013721D01*
X013718Y044649D01*
D02*
G37*
G36*
X013723Y044647D02*
X013716Y044645D01*
X013715Y044644D01*
X013715Y044644D01*
X013715Y044644D01*
X013714Y044644D01*
X013714D01*
X013714Y044644D01*
X013715Y044644D01*
X013716Y044644D01*
X013723Y044641D01*
Y044639D01*
X013713Y044643D01*
Y044645D01*
X013723Y044649D01*
Y044647D01*
D02*
G37*
G36*
Y044636D02*
Y044634D01*
X013713Y04463D01*
Y044632D01*
X013716Y044633D01*
Y044637D01*
X013713Y044638D01*
Y044639D01*
X013723Y044636D01*
D02*
G37*
G36*
Y044628D02*
X013714D01*
Y044623D01*
X013713D01*
Y044629D01*
X013723D01*
Y044628D01*
D02*
G37*
G36*
Y04462D02*
X013717D01*
X013717D01*
X013717D01*
X013716D01*
X013716Y04462D01*
X013715Y04462D01*
X013715D01*
X013715Y04462D01*
X013715Y04462D01*
X013714Y044619D01*
Y044619D01*
X013714Y044619D01*
X013714Y044618D01*
X013714Y044618D01*
Y044617D01*
X013714Y044617D01*
X013714Y044616D01*
X013715Y044616D01*
X013715Y044616D01*
X013715Y044615D01*
X013715Y044615D01*
X013716Y044615D01*
X013716Y044615D01*
X013717D01*
X013723D01*
Y044614D01*
X013717D01*
X013717D01*
X013717D01*
X013716D01*
X013715Y044614D01*
X013715Y044614D01*
X013715Y044614D01*
X013714Y044614D01*
X013714Y044615D01*
X013713Y044615D01*
X013713Y044615D01*
X013713Y044616D01*
X013713Y044617D01*
X013713Y044618D01*
Y044618D01*
X013713Y044618D01*
X013713Y044619D01*
X013713Y04462D01*
X013713Y04462D01*
X013714Y04462D01*
X013714Y044621D01*
X013715Y044621D01*
X013715D01*
X013715Y044621D01*
X013716Y044621D01*
X013717Y044621D01*
X013723D01*
Y04462D01*
D02*
G37*
G36*
Y044604D02*
X013722D01*
Y04461D01*
X013719D01*
Y044605D01*
X013717D01*
Y04461D01*
X013714D01*
Y044604D01*
X013713D01*
Y044611D01*
X013723D01*
Y044604D01*
D02*
G37*
%LPC*%
G36*
X020787Y036387D02*
Y036383D01*
X02079Y036384D01*
X02079D01*
X02079Y036384D01*
X02079Y036385D01*
X020791Y036385D01*
X020792Y036385D01*
X020791D01*
X020791Y036385D01*
X02079Y036385D01*
X02079Y036386D01*
X020787Y036387D01*
D02*
G37*
G36*
Y037187D02*
Y037183D01*
X02079Y037184D01*
X02079D01*
X02079Y037184D01*
X02079Y037185D01*
X020791Y037185D01*
X020792Y037185D01*
X020791D01*
X020791Y037185D01*
X02079Y037185D01*
X02079Y037186D01*
X020787Y037187D01*
D02*
G37*
G36*
X020797Y041097D02*
Y041093D01*
X0208Y041094D01*
X0208D01*
X0208Y041094D01*
X0208Y041095D01*
X020801Y041095D01*
X020802Y041095D01*
X020801D01*
X020801Y041095D01*
X0208Y041095D01*
X0208Y041096D01*
X020797Y041097D01*
D02*
G37*
G36*
X020807D02*
Y041093D01*
X02081Y041094D01*
X02081D01*
X02081Y041094D01*
X02081Y041095D01*
X020811Y041095D01*
X020812Y041095D01*
X020811D01*
X020811Y041095D01*
X02081Y041095D01*
X02081Y041096D01*
X020807Y041097D01*
D02*
G37*
G36*
Y040317D02*
Y040313D01*
X02081Y040314D01*
X02081D01*
X02081Y040314D01*
X02081Y040315D01*
X020811Y040315D01*
X020812Y040315D01*
X020811D01*
X020811Y040315D01*
X02081Y040315D01*
X02081Y040316D01*
X020807Y040317D01*
D02*
G37*
G36*
Y039527D02*
Y039523D01*
X02081Y039524D01*
X02081D01*
X02081Y039524D01*
X02081Y039525D01*
X020811Y039525D01*
X020812Y039525D01*
X020811D01*
X020811Y039525D01*
X02081Y039525D01*
X02081Y039526D01*
X020807Y039527D01*
D02*
G37*
G36*
Y038737D02*
Y038733D01*
X02081Y038734D01*
X02081D01*
X02081Y038734D01*
X02081Y038735D01*
X020811Y038735D01*
X020812Y038735D01*
X020811D01*
X020811Y038735D01*
X02081Y038735D01*
X02081Y038736D01*
X020807Y038737D01*
D02*
G37*
G36*
Y037947D02*
Y037943D01*
X02081Y037944D01*
X02081D01*
X02081Y037944D01*
X02081Y037945D01*
X020811Y037945D01*
X020812Y037945D01*
X020811D01*
X020811Y037945D01*
X02081Y037945D01*
X02081Y037946D01*
X020807Y037947D01*
D02*
G37*
G36*
Y037167D02*
Y037163D01*
X02081Y037164D01*
X02081D01*
X02081Y037164D01*
X02081Y037165D01*
X020811Y037165D01*
X020812Y037165D01*
X020811D01*
X020811Y037165D01*
X02081Y037165D01*
X02081Y037166D01*
X020807Y037167D01*
D02*
G37*
G36*
Y036377D02*
Y036373D01*
X02081Y036374D01*
X02081D01*
X02081Y036374D01*
X02081Y036375D01*
X020811Y036375D01*
X020812Y036375D01*
X020811D01*
X020811Y036375D01*
X02081Y036375D01*
X02081Y036376D01*
X020807Y036377D01*
D02*
G37*
G36*
X013717Y039127D02*
Y039123D01*
X01372Y039124D01*
X01372D01*
X01372Y039124D01*
X01372Y039125D01*
X013721Y039125D01*
X013722Y039125D01*
X013721D01*
X013721Y039125D01*
X01372Y039125D01*
X01372Y039126D01*
X013717Y039127D01*
D02*
G37*
G36*
Y039917D02*
Y039913D01*
X01372Y039914D01*
X01372D01*
X01372Y039914D01*
X01372Y039915D01*
X013721Y039915D01*
X013722Y039915D01*
X013721D01*
X013721Y039915D01*
X01372Y039915D01*
X01372Y039916D01*
X013717Y039917D01*
D02*
G37*
G36*
Y040697D02*
Y040693D01*
X01372Y040694D01*
X01372D01*
X01372Y040694D01*
X01372Y040695D01*
X013721Y040695D01*
X013722Y040695D01*
X013721D01*
X013721Y040695D01*
X01372Y040695D01*
X01372Y040696D01*
X013717Y040697D01*
D02*
G37*
G36*
Y041487D02*
Y041483D01*
X01372Y041484D01*
X01372D01*
X01372Y041484D01*
X01372Y041485D01*
X013721Y041485D01*
X013722Y041485D01*
X013721D01*
X013721Y041485D01*
X01372Y041485D01*
X01372Y041486D01*
X013717Y041487D01*
D02*
G37*
G36*
Y042277D02*
Y042273D01*
X01372Y042274D01*
X01372D01*
X01372Y042274D01*
X01372Y042275D01*
X013721Y042275D01*
X013722Y042275D01*
X013721D01*
X013721Y042275D01*
X01372Y042275D01*
X01372Y042276D01*
X013717Y042277D01*
D02*
G37*
G36*
Y043067D02*
Y043063D01*
X01372Y043064D01*
X01372D01*
X01372Y043064D01*
X01372Y043065D01*
X013721Y043065D01*
X013722Y043065D01*
X013721D01*
X013721Y043065D01*
X01372Y043065D01*
X01372Y043066D01*
X013717Y043067D01*
D02*
G37*
G36*
Y043847D02*
Y043843D01*
X01372Y043844D01*
X01372D01*
X01372Y043844D01*
X01372Y043845D01*
X013721Y043845D01*
X013722Y043845D01*
X013721D01*
X013721Y043845D01*
X01372Y043845D01*
X01372Y043846D01*
X013717Y043847D01*
D02*
G37*
G36*
Y044637D02*
Y044633D01*
X01372Y044634D01*
X01372D01*
X01372Y044634D01*
X01372Y044635D01*
X013721Y044635D01*
X013722Y044635D01*
X013721D01*
X013721Y044635D01*
X01372Y044635D01*
X01372Y044636D01*
X013717Y044637D01*
D02*
G37*
%LPD*%
M02*
