M48
;Layer_Color=9474304
;FILE_FORMAT=2:4
INCH,LZ
;TYPE=PLATED
T1F00S00C0.0280
T2F00S00C0.0402
T3F00S00C0.0433
T4F00S00C0.1260
%
T01
X023425Y042126
Y04411
X03937Y043701
X039961Y040748
X041784Y039567
T02
X012338Y035561
Y036561
Y037561
Y038561
Y039561
Y040561
Y041561
Y042561
X021388Y042511
Y041511
Y040511
Y039511
Y038511
Y037511
Y036511
Y035511
X025575Y036024
X026575
X027575
X028575
X030524Y035551
X030552Y037183
X030173Y03878
X029173
X028173
X027173
X026173
X025173
X031173
X031123Y04478
X030123
X029123
X028123
X027123
X026123
X025123
X032123
X033123
X034123
X035123
X036123
X037123
X038123
X039123
X039173Y03878
X038173
X037173
X036173
X035173
X034173
X033173
X032173
X032552Y037183
X031552
X031524Y035551
X032524
X033524
X033552Y037183
X035638
X036638
X037638
X038638
X038634Y035551
X037634
X036634
X035634
X040445Y035933
Y036933
X041445
Y035933
Y034933
X040445
Y033933
X041445
T03
X026181Y046835
X027756
X029331
X032087
X033717Y046813
X035685
X037457Y046829
X039229Y046813
Y047813
Y048813
X037457Y048829
Y047829
X035685Y047813
Y048813
X033717
Y047813
X032087Y047835
Y048835
X029331
Y047835
X027756
Y048835
X026181
Y047835
T04
X011004Y042323
X022264Y034094
X030728Y034016
X030709Y049055
X022441
M30
