G04*
G04 #@! TF.GenerationSoftware,Altium Limited,Altium Designer,21.3.2 (30)*
G04*
G04 Layer_Color=65535*
%FSTAX24Y24*%
%MOIN*%
G70*
G04*
G04 #@! TF.SameCoordinates,0193B93B-ADE4-4E0C-A68A-37D7C30EBFC0*
G04*
G04*
G04 #@! TF.FilePolarity,Positive*
G04*
G01*
G75*
%ADD10C,0.0118*%
%ADD11C,0.0160*%
%ADD12C,0.0079*%
%ADD13C,0.0060*%
%ADD14C,0.0100*%
%ADD15C,0.0080*%
D10*
X020647Y035011D02*
G03*
X020647Y035011I-000059J0D01*
G01*
D11*
X017088Y037061D02*
G03*
X017088Y037061I-0003J0D01*
G01*
X022388Y049561D02*
X022388Y033461D01*
X014288Y035906D02*
Y041806D01*
X018788Y043546D02*
Y044306D01*
X014788Y043546D02*
X018788D01*
X014788D02*
Y044306D01*
X018788D01*
X011588Y033461D02*
X022388D01*
X014288Y035906D02*
X019288D01*
X011588Y049561D02*
X022388D01*
X011588D02*
X011588Y033461D01*
X014288Y041806D02*
X019288D01*
Y035906D02*
Y041806D01*
D12*
X039722Y03828D02*
X039772D01*
X039722D02*
Y04448D01*
X039623Y04528D02*
X039772D01*
Y03888D02*
Y04528D01*
X024523Y03828D02*
X024873D01*
X024523D02*
Y04528D01*
X024573D01*
Y03928D02*
Y04528D01*
X024525Y04428D02*
Y04528D01*
X024523D02*
X034672D01*
X033823Y04428D02*
X034672D01*
X024525D02*
X033873D01*
X039722D02*
Y04528D01*
X034525Y04428D02*
X039722D01*
X034525Y04528D02*
X039722D01*
X038623Y04428D02*
Y04528D01*
X038673Y03828D02*
Y03928D01*
X034575D02*
X039772D01*
X034575Y03828D02*
X039772D01*
Y03928D01*
X024575Y03828D02*
X033923D01*
X033873D02*
X034722D01*
X024573Y03928D02*
X034722D01*
X024575Y03828D02*
Y03928D01*
X040945Y036433D02*
X041945D01*
X040945D02*
Y037531D01*
X039945D02*
X041945D01*
X039945Y033335D02*
Y037531D01*
Y033335D02*
X041945D01*
Y037531D01*
X039232Y035051D02*
Y036051D01*
X035035Y035051D02*
X039232D01*
X035035Y036051D02*
X039232D01*
X035035Y035051D02*
Y036051D01*
X036134Y035051D02*
Y036051D01*
X03415Y036683D02*
Y037683D01*
X029953Y036683D02*
X03415D01*
X029953Y037683D02*
X03415D01*
X029953Y036683D02*
Y037683D01*
X031052Y036683D02*
Y037683D01*
X039237Y036683D02*
Y037683D01*
X03504Y036683D02*
X039237D01*
X03504Y037683D02*
X039237D01*
X03504Y036683D02*
Y037683D01*
X036138Y036683D02*
Y037683D01*
X034122Y035051D02*
Y036051D01*
X029925Y035051D02*
X034122D01*
X029925Y036051D02*
X034122D01*
X029925Y035051D02*
Y036051D01*
X031024Y035051D02*
Y036051D01*
X025681Y048335D02*
X026681D01*
X025681Y049335D02*
X026681D01*
Y046335D02*
Y049335D01*
X025681Y046335D02*
X026681D01*
X025681D02*
Y049335D01*
X027256Y048335D02*
X028256D01*
X027256Y049335D02*
X028256D01*
Y046335D02*
Y049335D01*
X027256Y046335D02*
X028256D01*
X027256D02*
Y049335D01*
X028831Y048335D02*
X029831D01*
X028831Y049335D02*
X029831D01*
Y046335D02*
Y049335D01*
X028831Y046335D02*
X029831D01*
X028831D02*
Y049335D01*
X031587Y048335D02*
X032587D01*
X031587Y049335D02*
X032587D01*
Y046335D02*
Y049335D01*
X031587Y046335D02*
X032587D01*
X031587D02*
Y049335D01*
X033217Y048313D02*
X034217D01*
X033217Y049313D02*
X034217D01*
Y046313D02*
Y049313D01*
X033217Y046313D02*
X034217D01*
X033217D02*
Y049313D01*
X035185Y048313D02*
X036185D01*
X035185Y049313D02*
X036185D01*
Y046313D02*
Y049313D01*
X035185Y046313D02*
X036185D01*
X035185D02*
Y049313D01*
X036957Y048329D02*
X037957D01*
X036957Y049329D02*
X037957D01*
Y046329D02*
Y049329D01*
X036957Y046329D02*
X037957D01*
X036957D02*
Y049329D01*
X038729Y048313D02*
X039729D01*
X038729Y049313D02*
X039729D01*
Y046313D02*
Y049313D01*
X038729Y046313D02*
X039729D01*
X038729D02*
Y049313D01*
X024895Y034764D02*
Y037344D01*
X029175D01*
X024895Y034764D02*
X029175D01*
Y037344D01*
X020888Y034913D02*
X021888D01*
Y043109D01*
X020888Y034913D02*
Y043109D01*
Y036011D02*
X021888D01*
X020888Y043109D02*
X021888D01*
X011838Y034963D02*
Y043159D01*
X012838D01*
X011838Y036061D02*
X012838D01*
X011838Y034913D02*
X012838D01*
Y034963D02*
Y043159D01*
D13*
X028311Y034463D02*
X028261Y034513D01*
X028161D01*
X028111Y034463D01*
Y034264D01*
X028161Y034214D01*
X028261D01*
X028311Y034264D01*
Y034363D01*
X028211D01*
X028411Y034214D02*
Y034513D01*
X028611Y034214D01*
Y034513D01*
X028711D02*
Y034214D01*
X028861D01*
X028911Y034264D01*
Y034463D01*
X028861Y034513D01*
X028711D01*
X027524D02*
X027324D01*
Y034363D01*
X027424Y034413D01*
X027474D01*
X027524Y034363D01*
Y034264D01*
X027474Y034214D01*
X027374D01*
X027324Y034264D01*
X027624Y034513D02*
Y034314D01*
X027724Y034214D01*
X027824Y034314D01*
Y034513D01*
X026343Y034463D02*
X026293Y034513D01*
X026193D01*
X026143Y034463D01*
Y034264D01*
X026193Y034214D01*
X026293D01*
X026343Y034264D01*
Y034363D01*
X026243D01*
X026443Y034214D02*
Y034513D01*
X026643Y034214D01*
Y034513D01*
X026742D02*
Y034214D01*
X026892D01*
X026942Y034264D01*
Y034463D01*
X026892Y034513D01*
X026742D01*
X025457D02*
X025257D01*
Y034363D01*
X025357Y034413D01*
X025407D01*
X025457Y034363D01*
Y034264D01*
X025407Y034214D01*
X025307D01*
X025257Y034264D01*
X025557Y034513D02*
Y034314D01*
X025657Y034214D01*
X025757Y034314D01*
Y034513D01*
X031405Y038167D02*
X031172D01*
Y037992D01*
X031288D01*
X031172D01*
Y037817D01*
X031522Y038167D02*
Y037817D01*
X031755D01*
X031872D02*
Y03805D01*
X031988Y038167D01*
X032105Y03805D01*
Y037817D01*
Y037992D01*
X031872D01*
X032221Y037817D02*
Y038167D01*
X032338Y03805D01*
X032455Y038167D01*
Y037817D01*
X032805Y038167D02*
X032571D01*
Y037817D01*
X032805D01*
X032571Y037992D02*
X032688D01*
X036642Y036284D02*
Y036634D01*
X036758Y036517D01*
X036875Y036634D01*
Y036284D01*
X037225Y036342D02*
Y036575D01*
X037166Y036634D01*
X03705D01*
X036991Y036575D01*
Y036342D01*
X03705Y036284D01*
X037166D01*
X037108Y0364D02*
X037225Y036284D01*
X037166D02*
X037225Y036342D01*
X037341Y036459D02*
X037575D01*
X037924Y036284D02*
X037691D01*
X037924Y036517D01*
Y036575D01*
X037866Y036634D01*
X03775D01*
X037691Y036575D01*
X036971Y038109D02*
X036913Y038167D01*
X036797D01*
X036738Y038109D01*
Y037875D01*
X036797Y037817D01*
X036913D01*
X036971Y037875D01*
Y037992D01*
X036855D01*
X037088Y037817D02*
Y038167D01*
X037263D01*
X037321Y038109D01*
Y037992D01*
X037263Y037934D01*
X037088D01*
X037671Y038109D02*
X037613Y038167D01*
X037496D01*
X037438Y038109D01*
Y03805D01*
X037496Y037992D01*
X037613D01*
X037671Y037934D01*
Y037875D01*
X037613Y037817D01*
X037496D01*
X037438Y037875D01*
X031491Y036575D02*
X031433Y036634D01*
X031316D01*
X031258Y036575D01*
Y036517D01*
X031316Y036459D01*
X031433D01*
X031491Y0364D01*
Y036342D01*
X031433Y036284D01*
X031316D01*
X031258Y036342D01*
X031608Y036284D02*
Y036634D01*
X031783D01*
X031841Y036575D01*
Y036459D01*
X031783Y0364D01*
X031608D01*
X031724D02*
X031841Y036284D01*
X031958Y036459D02*
X032191D01*
X032308Y036575D02*
X032366Y036634D01*
X032483D01*
X032541Y036575D01*
Y036342D01*
X032483Y036284D01*
X032366D01*
X032308Y036342D01*
Y036575D01*
X032832Y036284D02*
Y036634D01*
X032658Y036459D01*
X032891D01*
D14*
X018655Y047461D02*
X018988D01*
Y047961D01*
X018655D01*
X018988Y047711D02*
X018821D01*
X018155Y047544D02*
X018238Y047461D01*
X018405D01*
X018488Y047544D01*
Y047628D01*
X018405Y047711D01*
X018238D01*
X018155Y047794D01*
Y047878D01*
X018238Y047961D01*
X018405D01*
X018488Y047878D01*
X017988Y047961D02*
Y047461D01*
X017738D01*
X017655Y047544D01*
Y047711D01*
X017738Y047794D01*
X017988D01*
X017488Y047544D02*
X017405Y047461D01*
X017238D01*
X017155Y047544D01*
Y047628D01*
X017238Y047711D01*
X017322D01*
X017238D01*
X017155Y047794D01*
Y047878D01*
X017238Y047961D01*
X017405D01*
X017488Y047878D01*
X016655Y047961D02*
X016988D01*
X016655Y047628D01*
Y047544D01*
X016739Y047461D01*
X016905D01*
X016988Y047544D01*
X016489Y047711D02*
X016155D01*
X015656Y047544D02*
X015739Y047461D01*
X015906D01*
X015989Y047544D01*
Y047878D01*
X015906Y047961D01*
X015739D01*
X015656Y047878D01*
X015489Y047961D02*
Y047628D01*
X015322Y047461D01*
X015156Y047628D01*
Y047961D01*
Y047711D01*
X015489D01*
X014989Y047961D02*
Y047461D01*
X014823Y047628D01*
X014656Y047461D01*
Y047961D01*
D15*
X038938Y046066D02*
Y045666D01*
X039138D01*
X039205Y045733D01*
Y045999D01*
X039138Y046066D01*
X038938D01*
X039338D02*
X039605D01*
Y045999D01*
X039338Y045733D01*
Y045666D01*
X02904Y045688D02*
Y045955D01*
X029174Y046088D01*
X029307Y045955D01*
Y045688D01*
Y045888D01*
X02904D01*
X02964Y045688D02*
Y046088D01*
X02944Y045888D01*
X029707D01*
X027466Y045688D02*
Y045955D01*
X027599Y046088D01*
X027732Y045955D01*
Y045688D01*
Y045888D01*
X027466D01*
X028132Y046088D02*
X027865D01*
Y045888D01*
X027999Y045955D01*
X028065D01*
X028132Y045888D01*
Y045755D01*
X028065Y045688D01*
X027932D01*
X027865Y045755D01*
X025891Y045688D02*
Y045955D01*
X026024Y046088D01*
X026157Y045955D01*
Y045688D01*
Y045888D01*
X025891D01*
X026557Y046088D02*
X026424Y046021D01*
X026291Y045888D01*
Y045755D01*
X026357Y045688D01*
X026491D01*
X026557Y045755D01*
Y045821D01*
X026491Y045888D01*
X026291D01*
X037167Y045666D02*
Y045933D01*
X0373Y046066D01*
X037433Y045933D01*
Y045666D01*
Y045866D01*
X037167D01*
X037567Y045999D02*
X037633Y046066D01*
X037767D01*
X037833Y045999D01*
Y045733D01*
X037767Y045666D01*
X037633D01*
X037567Y045733D01*
Y045999D01*
X035462Y045666D02*
Y045933D01*
X035595Y046066D01*
X035728Y045933D01*
Y045666D01*
Y045866D01*
X035462D01*
X035862Y045666D02*
X035995D01*
X035928D01*
Y046066D01*
X035862Y045999D01*
X033328Y045666D02*
Y045933D01*
X033461Y046066D01*
X033595Y045933D01*
Y045666D01*
Y045866D01*
X033328D01*
X033995Y045666D02*
X033728D01*
X033995Y045933D01*
Y045999D01*
X033928Y046066D01*
X033795D01*
X033728Y045999D01*
X031796Y045688D02*
Y045955D01*
X03193Y046088D01*
X032063Y045955D01*
Y045688D01*
Y045888D01*
X031796D01*
X032196Y046021D02*
X032263Y046088D01*
X032396D01*
X032463Y046021D01*
Y045955D01*
X032396Y045888D01*
X032329D01*
X032396D01*
X032463Y045821D01*
Y045755D01*
X032396Y045688D01*
X032263D01*
X032196Y045755D01*
X040612Y037792D02*
Y038192D01*
X040812D01*
X040878Y038125D01*
Y037992D01*
X040812Y037925D01*
X040612D01*
X040745D02*
X040878Y037792D01*
X041278Y038192D02*
X041012D01*
Y037992D01*
X041145D01*
X041012D01*
Y037792D01*
M02*
