G04*
G04 #@! TF.GenerationSoftware,Altium Limited,Altium Designer,21.3.2 (30)*
G04*
G04 Layer_Color=128*
%FSTAX24Y24*%
%MOIN*%
G70*
G04*
G04 #@! TF.SameCoordinates,0193B93B-ADE4-4E0C-A68A-37D7C30EBFC0*
G04*
G04*
G04 #@! TF.FilePolarity,Positive*
G04*
G01*
G75*
%ADD31C,0.0020*%
D31*
X033922Y04478D02*
X034324D01*
X034123Y044579D02*
Y04498D01*
X032922Y04478D02*
X033324D01*
X033123Y044579D02*
Y04498D01*
X030922Y04478D02*
X031324D01*
X031123Y044579D02*
Y04498D01*
X029922Y04478D02*
X030324D01*
X030123Y044579D02*
Y04498D01*
X028922Y04478D02*
X029324D01*
X029123Y044579D02*
Y04498D01*
X027922Y04478D02*
X028324D01*
X028123Y044579D02*
Y04498D01*
X026922Y04478D02*
X027324D01*
X027123Y044579D02*
Y04498D01*
X025922Y04478D02*
X026324D01*
X026123Y044579D02*
Y04498D01*
X024922Y04478D02*
X025324D01*
X025123Y044579D02*
Y04498D01*
X031922Y04478D02*
X032324D01*
X032123Y044579D02*
Y04498D01*
X034922Y04478D02*
X035324D01*
X035123Y044579D02*
Y04498D01*
X035922Y04478D02*
X036324D01*
X036123Y044579D02*
Y04498D01*
X036922Y04478D02*
X037324D01*
X037123Y044579D02*
Y04498D01*
X037922Y04478D02*
X038324D01*
X038123Y044579D02*
Y04498D01*
X038922Y04478D02*
X039324D01*
X039123Y044579D02*
Y04498D01*
X038972Y03878D02*
X039374D01*
X039173Y038579D02*
Y03898D01*
X037972Y03878D02*
X038374D01*
X038173Y038579D02*
Y03898D01*
X036972Y03878D02*
X037374D01*
X037173Y038579D02*
Y03898D01*
X035972Y03878D02*
X036374D01*
X036173Y038579D02*
Y03898D01*
X034972Y03878D02*
X035374D01*
X035173Y038579D02*
Y03898D01*
X031972Y03878D02*
X032374D01*
X032173Y038579D02*
Y03898D01*
X024972Y03878D02*
X025374D01*
X025173Y038579D02*
Y03898D01*
X025972Y03878D02*
X026374D01*
X026173Y038579D02*
Y03898D01*
X026972Y03878D02*
X027374D01*
X027173Y038579D02*
Y03898D01*
X027972Y03878D02*
X028374D01*
X028173Y038579D02*
Y03898D01*
X028972Y03878D02*
X029374D01*
X029173Y038579D02*
Y03898D01*
X029972Y03878D02*
X030374D01*
X030173Y038579D02*
Y03898D01*
X030972Y03878D02*
X031374D01*
X031173Y038579D02*
Y03898D01*
X032972Y03878D02*
X033374D01*
X033173Y038579D02*
Y03898D01*
X033972Y03878D02*
X034374D01*
X034173Y038579D02*
Y03898D01*
X040244Y036933D02*
X040646D01*
X040445Y036732D02*
Y037134D01*
X040244Y035933D02*
X040646D01*
X040445Y035732D02*
Y036134D01*
X040244Y034933D02*
X040646D01*
X040445Y034732D02*
Y035134D01*
X040244Y033933D02*
X040646D01*
X040445Y033732D02*
Y034134D01*
X041244Y033933D02*
X041646D01*
X041445Y033732D02*
Y034134D01*
X041244Y034933D02*
X041646D01*
X041445Y034732D02*
Y035134D01*
X041244Y035933D02*
X041646D01*
X041445Y035732D02*
Y036134D01*
X041244Y036933D02*
X041646D01*
X041445Y036732D02*
Y037134D01*
X035433Y035551D02*
X035835D01*
X035634Y03535D02*
Y035752D01*
X036433Y035551D02*
X036835D01*
X036634Y03535D02*
Y035752D01*
X037433Y035551D02*
X037835D01*
X037634Y03535D02*
Y035752D01*
X038433Y035551D02*
X038835D01*
X038634Y03535D02*
Y035752D01*
X030351Y037183D02*
X030752D01*
X030552Y036982D02*
Y037384D01*
X031351Y037183D02*
X031752D01*
X031552Y036982D02*
Y037384D01*
X032351Y037183D02*
X032752D01*
X032552Y036982D02*
Y037384D01*
X033351Y037183D02*
X033752D01*
X033552Y036982D02*
Y037384D01*
X035437Y037183D02*
X035839D01*
X035638Y036982D02*
Y037384D01*
X036437Y037183D02*
X036839D01*
X036638Y036982D02*
Y037384D01*
X037437Y037183D02*
X037839D01*
X037638Y036982D02*
Y037384D01*
X038437Y037183D02*
X038839D01*
X038638Y036982D02*
Y037384D01*
X030323Y035551D02*
X030724D01*
X030524Y03535D02*
Y035752D01*
X031323Y035551D02*
X031724D01*
X031524Y03535D02*
Y035752D01*
X032323Y035551D02*
X032724D01*
X032524Y03535D02*
Y035752D01*
X033323Y035551D02*
X033724D01*
X033524Y03535D02*
Y035752D01*
X025965Y046835D02*
X026398D01*
X026181Y046618D02*
Y047051D01*
X025965Y047835D02*
X026398D01*
X026181Y047618D02*
Y048051D01*
X025965Y048835D02*
X026398D01*
X026181Y048618D02*
Y049051D01*
X027539Y046835D02*
X027972D01*
X027756Y046618D02*
Y047051D01*
X027539Y047835D02*
X027972D01*
X027756Y047618D02*
Y048051D01*
X027539Y048835D02*
X027972D01*
X027756Y048618D02*
Y049051D01*
X029114Y046835D02*
X029547D01*
X029331Y046618D02*
Y047051D01*
X029114Y047835D02*
X029547D01*
X029331Y047618D02*
Y048051D01*
X029114Y048835D02*
X029547D01*
X029331Y048618D02*
Y049051D01*
X03187Y046835D02*
X032303D01*
X032087Y046618D02*
Y047051D01*
X03187Y047835D02*
X032303D01*
X032087Y047618D02*
Y048051D01*
X03187Y048835D02*
X032303D01*
X032087Y048618D02*
Y049051D01*
X0335Y046813D02*
X033934D01*
X033717Y046596D02*
Y047029D01*
X0335Y047813D02*
X033934D01*
X033717Y047596D02*
Y048029D01*
X0335Y048813D02*
X033934D01*
X033717Y048596D02*
Y049029D01*
X035469Y046813D02*
X035902D01*
X035685Y046596D02*
Y047029D01*
X035469Y047813D02*
X035902D01*
X035685Y047596D02*
Y048029D01*
X035469Y048813D02*
X035902D01*
X035685Y048596D02*
Y049029D01*
X037241Y046829D02*
X037674D01*
X037457Y046612D02*
Y047045D01*
X037241Y047829D02*
X037674D01*
X037457Y047612D02*
Y048045D01*
X037241Y048829D02*
X037674D01*
X037457Y048612D02*
Y049045D01*
X039012Y046813D02*
X039445D01*
X039229Y046596D02*
Y047029D01*
X039012Y047813D02*
X039445D01*
X039229Y047596D02*
Y048029D01*
X039012Y048813D02*
X039445D01*
X039229Y048596D02*
Y049029D01*
X028374Y036024D02*
X028776D01*
X028575Y035823D02*
Y036224D01*
X027374Y036024D02*
X027776D01*
X027575Y035823D02*
Y036224D01*
X026374Y036024D02*
X026776D01*
X026575Y035823D02*
Y036224D01*
X025374Y036024D02*
X025776D01*
X025575Y035823D02*
Y036224D01*
X021187Y041511D02*
X021589D01*
X021388Y04131D02*
Y041712D01*
X021187Y042511D02*
X021589D01*
X021388Y04231D02*
Y042712D01*
X021187Y040511D02*
X021589D01*
X021388Y04031D02*
Y040712D01*
X021187Y039511D02*
X021589D01*
X021388Y03931D02*
Y039712D01*
X021187Y038511D02*
X021589D01*
X021388Y03831D02*
Y038712D01*
X021187Y037511D02*
X021589D01*
X021388Y03731D02*
Y037712D01*
X021187Y036511D02*
X021589D01*
X021388Y03631D02*
Y036712D01*
X012137Y042561D02*
X012539D01*
X012338Y04236D02*
Y042762D01*
X012137Y040561D02*
X012539D01*
X012338Y04036D02*
Y040762D01*
X012137Y039561D02*
X012539D01*
X012338Y03936D02*
Y039762D01*
X012137Y038561D02*
X012539D01*
X012338Y03836D02*
Y038762D01*
X012137Y037561D02*
X012539D01*
X012338Y03736D02*
Y037762D01*
X012137Y036561D02*
X012539D01*
X012338Y03636D02*
Y036762D01*
X012137Y035561D02*
X012539D01*
X012338Y03536D02*
Y035762D01*
X012137Y041561D02*
X012539D01*
X012338Y04136D02*
Y041762D01*
X021187Y035511D02*
X021589D01*
X021388Y03531D02*
Y035712D01*
X021634Y034094D02*
X022894D01*
X022264Y033465D02*
Y034724D01*
X030098Y034016D02*
X031358D01*
X030728Y033386D02*
Y034646D01*
X041644Y039567D02*
X041924D01*
X041784Y039427D02*
Y039707D01*
X023285Y04411D02*
X023565D01*
X023425Y04397D02*
Y04425D01*
X023285Y042126D02*
X023565D01*
X023425Y041986D02*
Y042266D01*
X03923Y043701D02*
X03951D01*
X03937Y043561D02*
Y043841D01*
X039821Y040748D02*
X040101D01*
X039961Y040608D02*
Y040888D01*
X030079Y049055D02*
X031339D01*
X030709Y048425D02*
Y049685D01*
X021811Y049055D02*
X023071D01*
X022441Y048425D02*
Y049685D01*
X010374Y042323D02*
X011634D01*
X011004Y041693D02*
Y042953D01*
M02*
