G04*
G04 #@! TF.GenerationSoftware,Altium Limited,Altium Designer,21.3.2 (30)*
G04*
G04 Layer_Physical_Order=2*
G04 Layer_Color=16711680*
%FSTAX24Y24*%
%MOIN*%
G70*
G04*
G04 #@! TF.SameCoordinates,0193B93B-ADE4-4E0C-A68A-37D7C30EBFC0*
G04*
G04*
G04 #@! TF.FilePolarity,Positive*
G04*
G01*
G75*
%ADD21C,0.0200*%
%ADD23C,0.0500*%
%ADD24C,0.0598*%
%ADD25R,0.0598X0.0598*%
%ADD26R,0.0598X0.0598*%
%ADD27C,0.0630*%
%ADD28R,0.0630X0.0630*%
%ADD29C,0.1378*%
%ADD30C,0.0500*%
G36*
X030236Y049748D02*
X030174Y049707D01*
X030057Y04959D01*
X029965Y049453D01*
X029902Y0493D01*
X02987Y049138D01*
Y048972D01*
X029902Y04881D01*
X029965Y048658D01*
X030057Y04852D01*
X030174Y048403D01*
X030311Y048312D01*
X030421Y048266D01*
X030411Y048216D01*
X0296D01*
X02951Y048268D01*
X029392Y0483D01*
X029269D01*
X029151Y048268D01*
X029062Y048216D01*
X028025D01*
X027935Y048268D01*
X027817Y0483D01*
X027695D01*
X027576Y048268D01*
X027487Y048216D01*
X02645D01*
X026361Y048268D01*
X026242Y0483D01*
X02612D01*
X026002Y048268D01*
X025912Y048216D01*
X022739D01*
X022729Y048266D01*
X022838Y048312D01*
X022976Y048403D01*
X023093Y04852D01*
X023184Y048658D01*
X023248Y04881D01*
X02328Y048972D01*
Y049138D01*
X023248Y0493D01*
X023184Y049453D01*
X023093Y04959D01*
X022976Y049707D01*
X022914Y049748D01*
X022928Y049796D01*
X030221D01*
X030236Y049748D01*
D02*
G37*
G36*
X042296Y037934D02*
X04225Y037915D01*
X041794Y038371D01*
X041711Y038426D01*
X041613Y038446D01*
X03954D01*
X039521Y038492D01*
X039533Y038504D01*
X039592Y038606D01*
X039622Y03872D01*
Y038839D01*
X039592Y038953D01*
X039533Y039055D01*
X039449Y039139D01*
X039347Y039198D01*
X039232Y039229D01*
X039114D01*
X039Y039198D01*
X038897Y039139D01*
X038814Y039055D01*
X038755Y038953D01*
X038724Y038839D01*
Y03872D01*
X038746Y038638D01*
X038701Y038612D01*
X038616Y038697D01*
X038622Y03872D01*
Y038839D01*
X038592Y038953D01*
X038533Y039055D01*
X038449Y039139D01*
X038347Y039198D01*
X038232Y039229D01*
X038114D01*
X038Y039198D01*
X037897Y039139D01*
X037814Y039055D01*
X037755Y038953D01*
X037724Y038839D01*
Y03872D01*
X037755Y038606D01*
X037814Y038504D01*
X037897Y03842D01*
X038Y038361D01*
X038114Y03833D01*
X038232D01*
X038256Y038337D01*
X03845Y038142D01*
X038431Y038096D01*
X037218D01*
X037006Y038308D01*
X037032Y038352D01*
X037114Y03833D01*
X037232D01*
X037347Y038361D01*
X037449Y03842D01*
X037533Y038504D01*
X037592Y038606D01*
X037622Y03872D01*
Y038839D01*
X037592Y038953D01*
X037533Y039055D01*
X037449Y039139D01*
X037347Y039198D01*
X037232Y039229D01*
X037114D01*
X037Y039198D01*
X036897Y039139D01*
X036814Y039055D01*
X036755Y038953D01*
X036724Y038839D01*
Y03872D01*
X036746Y038638D01*
X036701Y038612D01*
X036616Y038697D01*
X036622Y03872D01*
Y038839D01*
X036592Y038953D01*
X036533Y039055D01*
X036449Y039139D01*
X036347Y039198D01*
X036232Y039229D01*
X036114D01*
X036031Y039207D01*
X036006Y039251D01*
X036066Y039312D01*
X041473D01*
X041538Y039247D01*
X04163Y039194D01*
X041731Y039167D01*
X041837D01*
X041938Y039194D01*
X04203Y039247D01*
X042104Y039321D01*
X042157Y039413D01*
X042184Y039514D01*
Y03962D01*
X042157Y039721D01*
X042104Y039813D01*
X04203Y039887D01*
X041938Y03994D01*
X041837Y039967D01*
X041731D01*
X04163Y03994D01*
X041538Y039887D01*
X041473Y039822D01*
X035961D01*
X035913Y039812D01*
X035888Y039858D01*
X039331Y043301D01*
X039423D01*
X039524Y043328D01*
X039616Y043381D01*
X039656Y043421D01*
X039706Y0434D01*
Y041059D01*
X039641Y040994D01*
X039588Y040902D01*
X039561Y040801D01*
Y040695D01*
X039588Y040594D01*
X039641Y040502D01*
X039715Y040428D01*
X039806Y040375D01*
X039908Y040348D01*
X040013D01*
X040115Y040375D01*
X040206Y040428D01*
X040281Y040502D01*
X040333Y040594D01*
X040361Y040695D01*
Y040801D01*
X040333Y040902D01*
X040281Y040994D01*
X040216Y041059D01*
Y043942D01*
X040196Y04404D01*
X040141Y044122D01*
X039572Y044691D01*
Y045229D01*
X038674D01*
Y04433D01*
X039212D01*
X039391Y044151D01*
X039371Y044101D01*
X039317D01*
X039216Y044074D01*
X039124Y044021D01*
X03905Y043946D01*
X038997Y043855D01*
X03897Y043753D01*
Y043661D01*
X034879Y03957D01*
X034848Y039564D01*
X034766Y039509D01*
X034415Y039159D01*
X034347Y039198D01*
X034232Y039229D01*
X034114D01*
X034Y039198D01*
X033897Y039139D01*
X033814Y039055D01*
X033755Y038953D01*
X033724Y038839D01*
Y03872D01*
X033755Y038606D01*
X033814Y038504D01*
X033872Y038446D01*
X033851Y038396D01*
X033495D01*
X033475Y038446D01*
X033533Y038504D01*
X033592Y038606D01*
X033622Y03872D01*
Y038839D01*
X033592Y038953D01*
X033533Y039055D01*
X033449Y039139D01*
X033347Y039198D01*
X033232Y039229D01*
X033114D01*
X033Y039198D01*
X032897Y039139D01*
X032814Y039055D01*
X032755Y038953D01*
X032724Y038839D01*
Y03872D01*
X032755Y038606D01*
X032814Y038504D01*
X032872Y038446D01*
X032851Y038396D01*
X032495D01*
X032475Y038446D01*
X032533Y038504D01*
X032592Y038606D01*
X032622Y03872D01*
Y038839D01*
X032592Y038953D01*
X032533Y039055D01*
X032449Y039139D01*
X032347Y039198D01*
X032232Y039229D01*
X032114D01*
X032Y039198D01*
X031897Y039139D01*
X031814Y039055D01*
X031755Y038953D01*
X031724Y038839D01*
Y03872D01*
X031755Y038606D01*
X031814Y038504D01*
X031872Y038446D01*
X031851Y038396D01*
X031495D01*
X031475Y038446D01*
X031533Y038504D01*
X031592Y038606D01*
X031622Y03872D01*
Y038839D01*
X031592Y038953D01*
X031533Y039055D01*
X031449Y039139D01*
X031347Y039198D01*
X031232Y039229D01*
X031114D01*
X031Y039198D01*
X030897Y039139D01*
X030814Y039055D01*
X030755Y038953D01*
X030724Y038839D01*
Y03872D01*
X030755Y038606D01*
X030814Y038504D01*
X030872Y038446D01*
X030851Y038396D01*
X030512D01*
X030512Y038396D01*
X030512Y038396D01*
X030495D01*
X030475Y038446D01*
X030533Y038504D01*
X030592Y038606D01*
X030622Y03872D01*
Y038839D01*
X030592Y038953D01*
X030533Y039055D01*
X030449Y039139D01*
X030347Y039198D01*
X030232Y039229D01*
X030114D01*
X03Y039198D01*
X029897Y039139D01*
X029814Y039055D01*
X029755Y038953D01*
X029724Y038839D01*
Y03872D01*
X029755Y038606D01*
X029814Y038504D01*
X029872Y038446D01*
X029851Y038396D01*
X029495D01*
X029475Y038446D01*
X029533Y038504D01*
X029592Y038606D01*
X029622Y03872D01*
Y038839D01*
X029592Y038953D01*
X029533Y039055D01*
X029449Y039139D01*
X029347Y039198D01*
X029232Y039229D01*
X029114D01*
X029Y039198D01*
X028897Y039139D01*
X028814Y039055D01*
X028755Y038953D01*
X028724Y038839D01*
Y03872D01*
X028755Y038606D01*
X028814Y038504D01*
X028872Y038446D01*
X028851Y038396D01*
X027495D01*
X027475Y038446D01*
X027533Y038504D01*
X027592Y038606D01*
X027622Y03872D01*
Y038839D01*
X027592Y038953D01*
X027533Y039055D01*
X027449Y039139D01*
X027347Y039198D01*
X027232Y039229D01*
X027114D01*
X027Y039198D01*
X026897Y039139D01*
X026814Y039055D01*
X026755Y038953D01*
X026724Y038839D01*
Y03872D01*
X026755Y038606D01*
X026814Y038504D01*
X026872Y038446D01*
X026851Y038396D01*
X026495D01*
X026475Y038446D01*
X026533Y038504D01*
X026592Y038606D01*
X026622Y03872D01*
Y038839D01*
X026592Y038953D01*
X026533Y039055D01*
X026449Y039139D01*
X026347Y039198D01*
X026232Y039229D01*
X026114D01*
X026Y039198D01*
X025897Y039139D01*
X025814Y039055D01*
X025755Y038953D01*
X025724Y038839D01*
Y03872D01*
X025755Y038606D01*
X025814Y038504D01*
X025872Y038446D01*
X025851Y038396D01*
X025495D01*
X025475Y038446D01*
X025533Y038504D01*
X025592Y038606D01*
X025622Y03872D01*
Y038839D01*
X025592Y038953D01*
X025533Y039055D01*
X025449Y039139D01*
X025347Y039198D01*
X025232Y039229D01*
X025114D01*
X025Y039198D01*
X024927Y039156D01*
X024877Y039185D01*
Y04222D01*
X02589Y043233D01*
X02783D01*
X02783Y043233D01*
X027935Y043247D01*
X028032Y043287D01*
X028116Y043351D01*
X028409Y043644D01*
X028409Y043644D01*
X028473Y043727D01*
X028513Y043825D01*
X028527Y043929D01*
X028527Y043929D01*
Y04458D01*
X028542Y044606D01*
X028572Y04472D01*
Y044839D01*
X028542Y044953D01*
X028483Y045055D01*
X028399Y045139D01*
X028297Y045198D01*
X028182Y045229D01*
X028064D01*
X02795Y045198D01*
X027847Y045139D01*
X027764Y045055D01*
X027705Y044953D01*
X027674Y044839D01*
Y04472D01*
X027705Y044606D01*
X02772Y04458D01*
Y044096D01*
X027663Y04404D01*
X025723D01*
X025619Y044026D01*
X025521Y043986D01*
X025438Y043922D01*
X024189Y042673D01*
X024125Y042589D01*
X024084Y042492D01*
X024071Y042387D01*
X024071Y042387D01*
Y03849D01*
X024071Y03849D01*
X024084Y038385D01*
X024125Y038288D01*
X024189Y038205D01*
X024598Y037795D01*
X024598Y037795D01*
X024682Y037731D01*
X024779Y037691D01*
X024833Y037683D01*
X024886Y037643D01*
X024984Y037602D01*
X025088Y037589D01*
X030102D01*
Y036734D01*
X03014D01*
Y036D01*
X030074D01*
Y035102D01*
X030973D01*
Y036D01*
X030947D01*
Y036734D01*
X031001D01*
Y037589D01*
X032263D01*
X032269Y037568D01*
X032272Y037539D01*
X032192Y037459D01*
X032133Y037356D01*
X032102Y037242D01*
Y037124D01*
X032133Y03701D01*
X032192Y036907D01*
X032276Y036824D01*
X032378Y036764D01*
X032492Y036734D01*
X032611D01*
X032725Y036764D01*
X032827Y036824D01*
X032911Y036907D01*
X03297Y03701D01*
X033001Y037124D01*
Y037242D01*
X03297Y037356D01*
X032911Y037459D01*
X032831Y037539D01*
X032834Y037568D01*
X03284Y037589D01*
X033263D01*
X033269Y037568D01*
X033272Y037539D01*
X033192Y037459D01*
X033133Y037356D01*
X033102Y037242D01*
Y037124D01*
X033133Y03701D01*
X033192Y036907D01*
X033276Y036824D01*
X033378Y036764D01*
X033492Y036734D01*
X033611D01*
X033725Y036764D01*
X033827Y036824D01*
X033911Y036907D01*
X03397Y03701D01*
X034001Y037124D01*
Y037242D01*
X03397Y037356D01*
X033911Y037459D01*
X033831Y037539D01*
X033834Y037568D01*
X03384Y037589D01*
X034662D01*
X035189Y037062D01*
Y036734D01*
X035243D01*
Y036D01*
X035185D01*
Y035102D01*
X036083D01*
Y036D01*
X03605D01*
Y036734D01*
X036087D01*
Y037632D01*
X03576D01*
X035114Y038277D01*
X035107Y038283D01*
X035108Y038286D01*
X035128Y03833D01*
X035232D01*
X035347Y038361D01*
X035449Y03842D01*
X035533Y038504D01*
X035592Y038606D01*
X035622Y03872D01*
Y038839D01*
X035616Y038862D01*
X035701Y038947D01*
X035746Y038921D01*
X035724Y038839D01*
Y03872D01*
X035755Y038606D01*
X035814Y038504D01*
X035897Y03842D01*
X036Y038361D01*
X036114Y03833D01*
X036232D01*
X036256Y038337D01*
X036932Y03766D01*
X037015Y037605D01*
X037112Y037586D01*
X037346D01*
X037356Y037536D01*
X037279Y037459D01*
X03722Y037356D01*
X037189Y037242D01*
Y037124D01*
X03722Y03701D01*
X037279Y036907D01*
X037362Y036824D01*
X037465Y036764D01*
X037579Y036734D01*
X037697D01*
X037812Y036764D01*
X037914Y036824D01*
X037998Y036907D01*
X038057Y03701D01*
X038087Y037124D01*
Y037242D01*
X038057Y037356D01*
X037998Y037459D01*
X037921Y037536D01*
X03793Y037586D01*
X039219D01*
X039312Y037493D01*
Y036614D01*
X039331Y036517D01*
X039387Y036434D01*
X039992Y035829D01*
X040011Y035816D01*
X040026Y03576D01*
X040085Y035657D01*
X040169Y035574D01*
X040271Y035514D01*
X040386Y035484D01*
X040504D01*
X040618Y035514D01*
X040721Y035574D01*
X040804Y035657D01*
X040863Y03576D01*
X040894Y035874D01*
Y035992D01*
X040863Y036106D01*
X040804Y036209D01*
X040721Y036293D01*
X040618Y036352D01*
X040504Y036382D01*
X040386D01*
X040271Y036352D01*
X04022Y036322D01*
X039822Y03672D01*
Y037598D01*
X039802Y037696D01*
X039747Y037779D01*
X039636Y03789D01*
X039655Y037936D01*
X041508D01*
X041871Y037573D01*
Y037382D01*
X040996D01*
Y036484D01*
X041871D01*
Y036193D01*
X041821Y03618D01*
X041804Y036209D01*
X041721Y036293D01*
X041618Y036352D01*
X041504Y036382D01*
X041386D01*
X041271Y036352D01*
X041169Y036293D01*
X041085Y036209D01*
X041026Y036106D01*
X040996Y035992D01*
Y035874D01*
X041026Y03576D01*
X041085Y035657D01*
X041169Y035574D01*
X041271Y035514D01*
X041386Y035484D01*
X041504D01*
X041587Y035506D01*
X041612Y035461D01*
X041527Y035376D01*
X041504Y035382D01*
X041386D01*
X041271Y035352D01*
X041169Y035293D01*
X041085Y035209D01*
X041026Y035106D01*
X040996Y034992D01*
Y034874D01*
X041026Y03476D01*
X041085Y034657D01*
X041169Y034574D01*
X041271Y034514D01*
X041386Y034484D01*
X041504D01*
X041618Y034514D01*
X041721Y034574D01*
X041804Y034657D01*
X041863Y03476D01*
X041894Y034874D01*
Y034992D01*
X041888Y035016D01*
X04225Y035378D01*
X042296Y035358D01*
Y033275D01*
X031216D01*
X031201Y033323D01*
X031263Y033364D01*
X03138Y033481D01*
X031472Y033618D01*
X031535Y033771D01*
X031567Y033933D01*
Y034098D01*
X031535Y03426D01*
X031472Y034413D01*
X03138Y034551D01*
X031263Y034667D01*
X031126Y034759D01*
X030973Y034822D01*
X030811Y034855D01*
X030646D01*
X030484Y034822D01*
X030331Y034759D01*
X030194Y034667D01*
X030077Y034551D01*
X029985Y034413D01*
X029922Y03426D01*
X029889Y034098D01*
Y033933D01*
X029922Y033771D01*
X029985Y033618D01*
X030077Y033481D01*
X030194Y033364D01*
X030256Y033323D01*
X030241Y033275D01*
X022608D01*
X022598Y033325D01*
X022661Y033351D01*
X022799Y033443D01*
X022915Y03356D01*
X023007Y033697D01*
X023071Y03385D01*
X023103Y034012D01*
Y034177D01*
X023071Y034339D01*
X023007Y034492D01*
X022915Y034629D01*
X022799Y034746D01*
X022661Y034838D01*
X022582Y034871D01*
X022592Y034921D01*
X027233D01*
X027233Y034921D01*
X027337Y034935D01*
X027434Y034975D01*
X027518Y035039D01*
X027841Y035362D01*
X027905Y035446D01*
X027946Y035543D01*
X027959Y035648D01*
X027959Y035648D01*
Y035791D01*
X027993Y03585D01*
X028024Y035964D01*
Y036083D01*
X027993Y036197D01*
X027934Y036299D01*
X027851Y036383D01*
X027748Y036442D01*
X027634Y036473D01*
X027516D01*
X027401Y036442D01*
X027299Y036383D01*
X027215Y036299D01*
X027156Y036197D01*
X027126Y036083D01*
Y035964D01*
X027153Y035864D01*
Y035815D01*
X027066Y035728D01*
X026024D01*
Y036473D01*
X025126D01*
Y035728D01*
X021837D01*
Y03596D01*
X020939D01*
X020939Y03596D01*
Y03596D01*
X020939Y03596D01*
X020895Y035975D01*
X020679Y036191D01*
Y044376D01*
X023059D01*
X023088Y044326D01*
X023052Y044265D01*
X023025Y044163D01*
Y044058D01*
X023052Y043956D01*
X023105Y043865D01*
X02317Y043799D01*
Y042437D01*
X023105Y042372D01*
X023052Y04228D01*
X023025Y042179D01*
Y042073D01*
X023052Y041972D01*
X023105Y04188D01*
X02318Y041806D01*
X023271Y041753D01*
X023373Y041726D01*
X023478D01*
X02358Y041753D01*
X023671Y041806D01*
X023745Y04188D01*
X023798Y041972D01*
X023825Y042073D01*
Y042179D01*
X023798Y04228D01*
X023745Y042372D01*
X02368Y042437D01*
Y043799D01*
X023745Y043865D01*
X023798Y043956D01*
X023825Y044058D01*
Y044163D01*
X023798Y044265D01*
X023762Y044326D01*
X023791Y044376D01*
X024924D01*
X02495Y044361D01*
X025064Y04433D01*
X025182D01*
X025297Y044361D01*
X025399Y04442D01*
X025483Y044504D01*
X025542Y044606D01*
X025572Y04472D01*
Y044839D01*
X025542Y044953D01*
X025483Y045055D01*
X025399Y045139D01*
X025297Y045198D01*
X025182Y045229D01*
X025064D01*
X02495Y045198D01*
X024924Y045183D01*
X020679D01*
Y047077D01*
X021012Y047409D01*
X025988D01*
X026002Y047401D01*
X02612Y04737D01*
X026242D01*
X026361Y047401D01*
X026375Y047409D01*
X027562D01*
X027576Y047401D01*
X027695Y04737D01*
X027817D01*
X027935Y047401D01*
X027949Y047409D01*
X029137D01*
X029151Y047401D01*
X029269Y04737D01*
X029392D01*
X02951Y047401D01*
X029524Y047409D01*
X031893D01*
X031907Y047401D01*
X032025Y04737D01*
X032148D01*
X032266Y047401D01*
X03228Y047409D01*
X033486D01*
X033538Y04738D01*
X033656Y047348D01*
X033778D01*
X033896Y04738D01*
X033948Y047409D01*
X035454D01*
X035506Y04738D01*
X035624Y047348D01*
X035747D01*
X035865Y04738D01*
X035917Y047409D01*
X037253D01*
X037278Y047395D01*
X037396Y047364D01*
X037518D01*
X037637Y047395D01*
X037661Y047409D01*
X038998D01*
X039049Y04738D01*
X039168Y047348D01*
X03929D01*
X039408Y04738D01*
X039514Y047441D01*
X039601Y047527D01*
X039662Y047633D01*
X039694Y047752D01*
Y047874D01*
X039662Y047992D01*
X039601Y048098D01*
X039514Y048185D01*
X039408Y048246D01*
X03929Y048278D01*
X039168D01*
X039049Y048246D01*
X038998Y048216D01*
X037716D01*
X037637Y048262D01*
X037518Y048294D01*
X037396D01*
X037278Y048262D01*
X037199Y048216D01*
X035917D01*
X035865Y048246D01*
X035747Y048278D01*
X035624D01*
X035506Y048246D01*
X035454Y048216D01*
X033948D01*
X033896Y048246D01*
X033778Y048278D01*
X033656D01*
X033538Y048246D01*
X033486Y048216D01*
X032355D01*
X032266Y048268D01*
X032148Y0483D01*
X032025D01*
X031907Y048268D01*
X031818Y048216D01*
X031007D01*
X030997Y048266D01*
X031106Y048312D01*
X031243Y048403D01*
X03136Y04852D01*
X031452Y048658D01*
X031515Y04881D01*
X031548Y048972D01*
Y049138D01*
X031515Y0493D01*
X031452Y049453D01*
X03136Y04959D01*
X031243Y049707D01*
X031181Y049748D01*
X031196Y049796D01*
X042296D01*
Y037934D01*
D02*
G37*
G36*
X021968Y049748D02*
X021906Y049707D01*
X021789Y04959D01*
X021697Y049453D01*
X021634Y0493D01*
X021602Y049138D01*
Y048972D01*
X021634Y04881D01*
X021697Y048658D01*
X021789Y04852D01*
X021906Y048403D01*
X022044Y048312D01*
X022153Y048266D01*
X022143Y048216D01*
X020844D01*
X02074Y048203D01*
X020643Y048162D01*
X020559Y048098D01*
X020559Y048098D01*
X01999Y047529D01*
X019926Y047446D01*
X019886Y047349D01*
X019872Y047244D01*
X019872Y047244D01*
Y044882D01*
X019872Y044882D01*
X019872Y044882D01*
Y036024D01*
X019872Y036024D01*
X019886Y035919D01*
X019926Y035822D01*
X01999Y035738D01*
X020473Y035255D01*
X020473Y035255D01*
X020557Y035191D01*
X020654Y035151D01*
X020759Y035137D01*
X020939D01*
Y035062D01*
X021266D01*
X021289Y035039D01*
X021289Y035039D01*
X021373Y034975D01*
X02147Y034935D01*
X021574Y034921D01*
X021574Y034921D01*
X021936D01*
X021946Y034871D01*
X021866Y034838D01*
X021729Y034746D01*
X021612Y034629D01*
X02152Y034492D01*
X021457Y034339D01*
X021425Y034177D01*
Y034012D01*
X021457Y03385D01*
X02152Y033697D01*
X021612Y03356D01*
X021729Y033443D01*
X021866Y033351D01*
X02193Y033325D01*
X02192Y033275D01*
X010224D01*
Y041891D01*
X010274Y041906D01*
X010352Y041788D01*
X010469Y041671D01*
X010607Y041579D01*
X010759Y041516D01*
X010921Y041484D01*
X011087D01*
X011249Y041516D01*
X011401Y041579D01*
X011539Y041671D01*
X011656Y041788D01*
X011747Y041925D01*
X011811Y042078D01*
X011843Y04224D01*
Y042405D01*
X011811Y042568D01*
X011747Y04272D01*
X011656Y042858D01*
X011539Y042975D01*
X011401Y043066D01*
X011249Y04313D01*
X011087Y043162D01*
X010921D01*
X010759Y04313D01*
X010607Y043066D01*
X010469Y042975D01*
X010352Y042858D01*
X010274Y04274D01*
X010224Y042755D01*
Y049796D01*
X021954D01*
X021968Y049748D01*
D02*
G37*
%LPC*%
G36*
X029331Y049238D02*
X026181D01*
X026077Y049224D01*
X025979Y049184D01*
X025896Y04912D01*
X025832Y049036D01*
X025791Y048939D01*
X025778Y048835D01*
X025791Y04873D01*
X025832Y048633D01*
X025896Y048549D01*
X025979Y048485D01*
X026077Y048445D01*
X026181Y048431D01*
X029331D01*
X029435Y048445D01*
X029532Y048485D01*
X029616Y048549D01*
X02968Y048633D01*
X02972Y04873D01*
X029734Y048835D01*
X02972Y048939D01*
X02968Y049036D01*
X029616Y04912D01*
X029532Y049184D01*
X029435Y049224D01*
X029331Y049238D01*
D02*
G37*
G36*
X032087Y049238D02*
X031982Y049224D01*
X031885Y049184D01*
X031801Y04912D01*
X031737Y049036D01*
X031697Y048939D01*
X031683Y048835D01*
X031697Y04873D01*
X031737Y048633D01*
X031801Y048549D01*
X031812Y048538D01*
X031896Y048474D01*
X031993Y048434D01*
X032097Y04842D01*
X032097Y04842D01*
X033634D01*
X033717Y048409D01*
X039229D01*
X039333Y048423D01*
X039431Y048463D01*
X039514Y048528D01*
X039578Y048611D01*
X039618Y048708D01*
X039632Y048813D01*
X039618Y048917D01*
X039578Y049015D01*
X039514Y049098D01*
X039431Y049162D01*
X039333Y049203D01*
X039229Y049216D01*
X033789D01*
X033706Y049227D01*
X033706Y049227D01*
X032169D01*
X032087Y049238D01*
D02*
G37*
G36*
X032148Y0473D02*
X032025D01*
X031907Y047268D01*
X031801Y047207D01*
X031715Y04712D01*
X031653Y047014D01*
X031622Y046896D01*
Y046773D01*
X031653Y046655D01*
X031715Y046549D01*
X031801Y046463D01*
X031907Y046401D01*
X032025Y04637D01*
X032148D01*
X032266Y046401D01*
X032372Y046463D01*
X032459Y046549D01*
X03252Y046655D01*
X032552Y046773D01*
Y046896D01*
X03252Y047014D01*
X032459Y04712D01*
X032372Y047207D01*
X032266Y047268D01*
X032148Y0473D01*
D02*
G37*
G36*
X029392D02*
X029269D01*
X029151Y047268D01*
X029045Y047207D01*
X028959Y04712D01*
X028897Y047014D01*
X028866Y046896D01*
Y046773D01*
X028897Y046655D01*
X028959Y046549D01*
X029045Y046463D01*
X029151Y046401D01*
X029269Y04637D01*
X029392D01*
X02951Y046401D01*
X029616Y046463D01*
X029703Y046549D01*
X029764Y046655D01*
X029796Y046773D01*
Y046896D01*
X029764Y047014D01*
X029703Y04712D01*
X029616Y047207D01*
X02951Y047268D01*
X029392Y0473D01*
D02*
G37*
G36*
X027817D02*
X027695D01*
X027576Y047268D01*
X02747Y047207D01*
X027384Y04712D01*
X027323Y047014D01*
X027291Y046896D01*
Y046773D01*
X027323Y046655D01*
X027384Y046549D01*
X02747Y046463D01*
X027576Y046401D01*
X027695Y04637D01*
X027817D01*
X027935Y046401D01*
X028041Y046463D01*
X028128Y046549D01*
X028189Y046655D01*
X028221Y046773D01*
Y046896D01*
X028189Y047014D01*
X028128Y04712D01*
X028041Y047207D01*
X027935Y047268D01*
X027817Y0473D01*
D02*
G37*
G36*
X026242D02*
X02612D01*
X026002Y047268D01*
X025896Y047207D01*
X025809Y04712D01*
X025748Y047014D01*
X025716Y046896D01*
Y046773D01*
X025748Y046655D01*
X025809Y046549D01*
X025896Y046463D01*
X026002Y046401D01*
X02612Y04637D01*
X026242D01*
X026361Y046401D01*
X026467Y046463D01*
X026553Y046549D01*
X026614Y046655D01*
X026646Y046773D01*
Y046896D01*
X026614Y047014D01*
X026553Y04712D01*
X026467Y047207D01*
X026361Y047268D01*
X026242Y0473D01*
D02*
G37*
G36*
X037518Y047294D02*
X037396D01*
X037278Y047262D01*
X037172Y047201D01*
X037085Y047114D01*
X037024Y047008D01*
X036992Y04689D01*
Y046767D01*
X037024Y046649D01*
X037085Y046543D01*
X037172Y046457D01*
X037278Y046395D01*
X037396Y046364D01*
X037518D01*
X037637Y046395D01*
X037743Y046457D01*
X037829Y046543D01*
X03789Y046649D01*
X037922Y046767D01*
Y04689D01*
X03789Y047008D01*
X037829Y047114D01*
X037743Y047201D01*
X037637Y047262D01*
X037518Y047294D01*
D02*
G37*
G36*
X03929Y047278D02*
X039168D01*
X039049Y047246D01*
X038943Y047185D01*
X038857Y047098D01*
X038796Y046992D01*
X038764Y046874D01*
Y046752D01*
X038796Y046633D01*
X038857Y046527D01*
X038943Y046441D01*
X039049Y04638D01*
X039168Y046348D01*
X03929D01*
X039408Y04638D01*
X039514Y046441D01*
X039601Y046527D01*
X039662Y046633D01*
X039694Y046752D01*
Y046874D01*
X039662Y046992D01*
X039601Y047098D01*
X039514Y047185D01*
X039408Y047246D01*
X03929Y047278D01*
D02*
G37*
G36*
X035747D02*
X035624D01*
X035506Y047246D01*
X0354Y047185D01*
X035313Y047098D01*
X035252Y046992D01*
X035221Y046874D01*
Y046752D01*
X035252Y046633D01*
X035313Y046527D01*
X0354Y046441D01*
X035506Y04638D01*
X035624Y046348D01*
X035747D01*
X035865Y04638D01*
X035971Y046441D01*
X036058Y046527D01*
X036119Y046633D01*
X03615Y046752D01*
Y046874D01*
X036119Y046992D01*
X036058Y047098D01*
X035971Y047185D01*
X035865Y047246D01*
X035747Y047278D01*
D02*
G37*
G36*
X033778D02*
X033656D01*
X033538Y047246D01*
X033431Y047185D01*
X033345Y047098D01*
X033284Y046992D01*
X033252Y046874D01*
Y046752D01*
X033284Y046633D01*
X033345Y046527D01*
X033431Y046441D01*
X033538Y04638D01*
X033656Y046348D01*
X033778D01*
X033896Y04638D01*
X034002Y046441D01*
X034089Y046527D01*
X03415Y046633D01*
X034182Y046752D01*
Y046874D01*
X03415Y046992D01*
X034089Y047098D01*
X034002Y047185D01*
X033896Y047246D01*
X033778Y047278D01*
D02*
G37*
G36*
X038182Y045229D02*
X038064D01*
X03795Y045198D01*
X037847Y045139D01*
X037764Y045055D01*
X037705Y044953D01*
X037674Y044839D01*
Y04472D01*
X037705Y044606D01*
X037764Y044504D01*
X037847Y04442D01*
X03795Y044361D01*
X038064Y04433D01*
X038182D01*
X038297Y044361D01*
X038399Y04442D01*
X038483Y044504D01*
X038542Y044606D01*
X038572Y04472D01*
Y044839D01*
X038542Y044953D01*
X038483Y045055D01*
X038399Y045139D01*
X038297Y045198D01*
X038182Y045229D01*
D02*
G37*
G36*
X037182D02*
X037064D01*
X03695Y045198D01*
X036847Y045139D01*
X036764Y045055D01*
X036705Y044953D01*
X036674Y044839D01*
Y04472D01*
X036705Y044606D01*
X036764Y044504D01*
X036847Y04442D01*
X03695Y044361D01*
X037064Y04433D01*
X037182D01*
X037297Y044361D01*
X037399Y04442D01*
X037483Y044504D01*
X037542Y044606D01*
X037572Y04472D01*
Y044839D01*
X037542Y044953D01*
X037483Y045055D01*
X037399Y045139D01*
X037297Y045198D01*
X037182Y045229D01*
D02*
G37*
G36*
X036182D02*
X036064D01*
X03595Y045198D01*
X035847Y045139D01*
X035764Y045055D01*
X035705Y044953D01*
X035674Y044839D01*
Y04472D01*
X035705Y044606D01*
X035764Y044504D01*
X035847Y04442D01*
X03595Y044361D01*
X036064Y04433D01*
X036182D01*
X036297Y044361D01*
X036399Y04442D01*
X036483Y044504D01*
X036542Y044606D01*
X036572Y04472D01*
Y044839D01*
X036542Y044953D01*
X036483Y045055D01*
X036399Y045139D01*
X036297Y045198D01*
X036182Y045229D01*
D02*
G37*
G36*
X035182D02*
X035064D01*
X03495Y045198D01*
X034847Y045139D01*
X034764Y045055D01*
X034705Y044953D01*
X034674Y044839D01*
Y04472D01*
X034705Y044606D01*
X034764Y044504D01*
X034847Y04442D01*
X03495Y044361D01*
X035064Y04433D01*
X035182D01*
X035297Y044361D01*
X035399Y04442D01*
X035483Y044504D01*
X035542Y044606D01*
X035572Y04472D01*
Y044839D01*
X035542Y044953D01*
X035483Y045055D01*
X035399Y045139D01*
X035297Y045198D01*
X035182Y045229D01*
D02*
G37*
G36*
X034182D02*
X034064D01*
X03395Y045198D01*
X033847Y045139D01*
X033764Y045055D01*
X033705Y044953D01*
X033674Y044839D01*
Y04472D01*
X033705Y044606D01*
X033764Y044504D01*
X033847Y04442D01*
X03395Y044361D01*
X034064Y04433D01*
X034182D01*
X034297Y044361D01*
X034399Y04442D01*
X034483Y044504D01*
X034542Y044606D01*
X034572Y04472D01*
Y044839D01*
X034542Y044953D01*
X034483Y045055D01*
X034399Y045139D01*
X034297Y045198D01*
X034182Y045229D01*
D02*
G37*
G36*
X033182D02*
X033064D01*
X03295Y045198D01*
X032847Y045139D01*
X032764Y045055D01*
X032705Y044953D01*
X032674Y044839D01*
Y04472D01*
X032705Y044606D01*
X032764Y044504D01*
X032847Y04442D01*
X03295Y044361D01*
X033064Y04433D01*
X033182D01*
X033297Y044361D01*
X033399Y04442D01*
X033483Y044504D01*
X033542Y044606D01*
X033572Y04472D01*
Y044839D01*
X033542Y044953D01*
X033483Y045055D01*
X033399Y045139D01*
X033297Y045198D01*
X033182Y045229D01*
D02*
G37*
G36*
X032182D02*
X032064D01*
X03195Y045198D01*
X031847Y045139D01*
X031764Y045055D01*
X031705Y044953D01*
X031674Y044839D01*
Y04472D01*
X031705Y044606D01*
X031764Y044504D01*
X031847Y04442D01*
X03195Y044361D01*
X032064Y04433D01*
X032182D01*
X032297Y044361D01*
X032399Y04442D01*
X032483Y044504D01*
X032542Y044606D01*
X032572Y04472D01*
Y044839D01*
X032542Y044953D01*
X032483Y045055D01*
X032399Y045139D01*
X032297Y045198D01*
X032182Y045229D01*
D02*
G37*
G36*
X031182D02*
X031064D01*
X03095Y045198D01*
X030847Y045139D01*
X030764Y045055D01*
X030705Y044953D01*
X030674Y044839D01*
Y04472D01*
X030705Y044606D01*
X030764Y044504D01*
X030847Y04442D01*
X03095Y044361D01*
X031064Y04433D01*
X031182D01*
X031297Y044361D01*
X031399Y04442D01*
X031483Y044504D01*
X031542Y044606D01*
X031572Y04472D01*
Y044839D01*
X031542Y044953D01*
X031483Y045055D01*
X031399Y045139D01*
X031297Y045198D01*
X031182Y045229D01*
D02*
G37*
G36*
X030182D02*
X030064D01*
X02995Y045198D01*
X029847Y045139D01*
X029764Y045055D01*
X029705Y044953D01*
X029674Y044839D01*
Y04472D01*
X029705Y044606D01*
X029764Y044504D01*
X029847Y04442D01*
X02995Y044361D01*
X030064Y04433D01*
X030182D01*
X030297Y044361D01*
X030399Y04442D01*
X030483Y044504D01*
X030542Y044606D01*
X030572Y04472D01*
Y044839D01*
X030542Y044953D01*
X030483Y045055D01*
X030399Y045139D01*
X030297Y045198D01*
X030182Y045229D01*
D02*
G37*
G36*
X029182D02*
X029064D01*
X02895Y045198D01*
X028847Y045139D01*
X028764Y045055D01*
X028705Y044953D01*
X028674Y044839D01*
Y04472D01*
X028705Y044606D01*
X028764Y044504D01*
X028847Y04442D01*
X02895Y044361D01*
X029064Y04433D01*
X029182D01*
X029297Y044361D01*
X029399Y04442D01*
X029483Y044504D01*
X029542Y044606D01*
X029572Y04472D01*
Y044839D01*
X029542Y044953D01*
X029483Y045055D01*
X029399Y045139D01*
X029297Y045198D01*
X029182Y045229D01*
D02*
G37*
G36*
X027182D02*
X027064D01*
X02695Y045198D01*
X026847Y045139D01*
X026764Y045055D01*
X026705Y044953D01*
X026674Y044839D01*
Y04472D01*
X026705Y044606D01*
X026764Y044504D01*
X026847Y04442D01*
X02695Y044361D01*
X027064Y04433D01*
X027182D01*
X027297Y044361D01*
X027399Y04442D01*
X027483Y044504D01*
X027542Y044606D01*
X027572Y04472D01*
Y044839D01*
X027542Y044953D01*
X027483Y045055D01*
X027399Y045139D01*
X027297Y045198D01*
X027182Y045229D01*
D02*
G37*
G36*
X021447Y04296D02*
X021329D01*
X021214Y04293D01*
X021112Y04287D01*
X021028Y042787D01*
X020969Y042684D01*
X020939Y04257D01*
Y042452D01*
X020969Y042338D01*
X021028Y042235D01*
X021112Y042151D01*
X021214Y042092D01*
X021329Y042062D01*
X021447D01*
X021561Y042092D01*
X021664Y042151D01*
X021747Y042235D01*
X021806Y042338D01*
X021837Y042452D01*
Y04257D01*
X021806Y042684D01*
X021747Y042787D01*
X021664Y04287D01*
X021561Y04293D01*
X021447Y04296D01*
D02*
G37*
G36*
Y04196D02*
X021329D01*
X021214Y04193D01*
X021112Y04187D01*
X021028Y041787D01*
X020969Y041684D01*
X020939Y04157D01*
Y041452D01*
X020969Y041338D01*
X021028Y041235D01*
X021112Y041151D01*
X021214Y041092D01*
X021329Y041062D01*
X021447D01*
X021561Y041092D01*
X021664Y041151D01*
X021747Y041235D01*
X021806Y041338D01*
X021837Y041452D01*
Y04157D01*
X021806Y041684D01*
X021747Y041787D01*
X021664Y04187D01*
X021561Y04193D01*
X021447Y04196D01*
D02*
G37*
G36*
Y04096D02*
X021329D01*
X021214Y04093D01*
X021112Y04087D01*
X021028Y040787D01*
X020969Y040684D01*
X020939Y04057D01*
Y040452D01*
X020969Y040338D01*
X021028Y040235D01*
X021112Y040151D01*
X021214Y040092D01*
X021329Y040062D01*
X021447D01*
X021561Y040092D01*
X021664Y040151D01*
X021747Y040235D01*
X021806Y040338D01*
X021837Y040452D01*
Y04057D01*
X021806Y040684D01*
X021747Y040787D01*
X021664Y04087D01*
X021561Y04093D01*
X021447Y04096D01*
D02*
G37*
G36*
Y03996D02*
X021329D01*
X021214Y03993D01*
X021112Y03987D01*
X021028Y039787D01*
X020969Y039684D01*
X020939Y03957D01*
Y039452D01*
X020969Y039338D01*
X021028Y039235D01*
X021112Y039151D01*
X021214Y039092D01*
X021329Y039062D01*
X021447D01*
X021561Y039092D01*
X021664Y039151D01*
X021747Y039235D01*
X021806Y039338D01*
X021837Y039452D01*
Y03957D01*
X021806Y039684D01*
X021747Y039787D01*
X021664Y03987D01*
X021561Y03993D01*
X021447Y03996D01*
D02*
G37*
G36*
Y03896D02*
X021329D01*
X021214Y03893D01*
X021112Y03887D01*
X021028Y038787D01*
X020969Y038684D01*
X020939Y03857D01*
Y038452D01*
X020969Y038338D01*
X021028Y038235D01*
X021112Y038151D01*
X021214Y038092D01*
X021329Y038062D01*
X021447D01*
X021561Y038092D01*
X021664Y038151D01*
X021747Y038235D01*
X021806Y038338D01*
X021837Y038452D01*
Y03857D01*
X021806Y038684D01*
X021747Y038787D01*
X021664Y03887D01*
X021561Y03893D01*
X021447Y03896D01*
D02*
G37*
G36*
Y03796D02*
X021329D01*
X021214Y03793D01*
X021112Y03787D01*
X021028Y037787D01*
X020969Y037684D01*
X020939Y03757D01*
Y037452D01*
X020969Y037338D01*
X021028Y037235D01*
X021112Y037151D01*
X021214Y037092D01*
X021329Y037062D01*
X021447D01*
X021561Y037092D01*
X021664Y037151D01*
X021747Y037235D01*
X021806Y037338D01*
X021837Y037452D01*
Y03757D01*
X021806Y037684D01*
X021747Y037787D01*
X021664Y03787D01*
X021561Y03793D01*
X021447Y03796D01*
D02*
G37*
G36*
X036697Y037632D02*
X036579D01*
X036465Y037602D01*
X036362Y037542D01*
X036279Y037459D01*
X03622Y037356D01*
X036189Y037242D01*
Y037124D01*
X03622Y03701D01*
X036279Y036907D01*
X036362Y036824D01*
X036465Y036764D01*
X036579Y036734D01*
X036697D01*
X036812Y036764D01*
X036914Y036824D01*
X036998Y036907D01*
X037057Y03701D01*
X037087Y037124D01*
Y037242D01*
X037057Y037356D01*
X036998Y037459D01*
X036914Y037542D01*
X036812Y037602D01*
X036697Y037632D01*
D02*
G37*
G36*
X038693Y036D02*
X038575D01*
X03846Y03597D01*
X038358Y035911D01*
X038274Y035827D01*
X038215Y035725D01*
X038185Y03561D01*
Y035492D01*
X038215Y035378D01*
X038274Y035275D01*
X038358Y035192D01*
X03846Y035133D01*
X038575Y035102D01*
X038693D01*
X038807Y035133D01*
X03891Y035192D01*
X038993Y035275D01*
X039052Y035378D01*
X039083Y035492D01*
Y03561D01*
X039052Y035725D01*
X038993Y035827D01*
X03891Y035911D01*
X038807Y03597D01*
X038693Y036D01*
D02*
G37*
G36*
X037693D02*
X037575D01*
X03746Y03597D01*
X037358Y035911D01*
X037274Y035827D01*
X037215Y035725D01*
X037185Y03561D01*
Y035492D01*
X037215Y035378D01*
X037274Y035275D01*
X037358Y035192D01*
X03746Y035133D01*
X037575Y035102D01*
X037693D01*
X037807Y035133D01*
X03791Y035192D01*
X037993Y035275D01*
X038052Y035378D01*
X038083Y035492D01*
Y03561D01*
X038052Y035725D01*
X037993Y035827D01*
X03791Y035911D01*
X037807Y03597D01*
X037693Y036D01*
D02*
G37*
G36*
X032583D02*
X032464D01*
X03235Y03597D01*
X032248Y035911D01*
X032164Y035827D01*
X032105Y035725D01*
X032074Y03561D01*
Y035492D01*
X032105Y035378D01*
X032164Y035275D01*
X032248Y035192D01*
X03235Y035133D01*
X032464Y035102D01*
X032583D01*
X032697Y035133D01*
X032799Y035192D01*
X032883Y035275D01*
X032942Y035378D01*
X032973Y035492D01*
Y03561D01*
X032942Y035725D01*
X032883Y035827D01*
X032799Y035911D01*
X032697Y03597D01*
X032583Y036D01*
D02*
G37*
G36*
X031583D02*
X031464D01*
X03135Y03597D01*
X031248Y035911D01*
X031164Y035827D01*
X031105Y035725D01*
X031074Y03561D01*
Y035492D01*
X031105Y035378D01*
X031164Y035275D01*
X031248Y035192D01*
X03135Y035133D01*
X031464Y035102D01*
X031583D01*
X031697Y035133D01*
X031799Y035192D01*
X031883Y035275D01*
X031942Y035378D01*
X031973Y035492D01*
Y03561D01*
X031942Y035725D01*
X031883Y035827D01*
X031799Y035911D01*
X031697Y03597D01*
X031583Y036D01*
D02*
G37*
G36*
X040504Y035382D02*
X040386D01*
X040271Y035352D01*
X040169Y035293D01*
X040085Y035209D01*
X040026Y035106D01*
X039996Y034992D01*
Y034874D01*
X040026Y03476D01*
X040085Y034657D01*
X040169Y034574D01*
X040271Y034514D01*
X040386Y034484D01*
X040504D01*
X040618Y034514D01*
X040721Y034574D01*
X040804Y034657D01*
X040863Y03476D01*
X040894Y034874D01*
Y034992D01*
X040863Y035106D01*
X040804Y035209D01*
X040721Y035293D01*
X040618Y035352D01*
X040504Y035382D01*
D02*
G37*
G36*
X041504Y034382D02*
X041386D01*
X041271Y034352D01*
X041169Y034293D01*
X041085Y034209D01*
X041026Y034106D01*
X040996Y033992D01*
Y033874D01*
X041026Y03376D01*
X041085Y033657D01*
X041169Y033574D01*
X041271Y033514D01*
X041386Y033484D01*
X041504D01*
X041618Y033514D01*
X041721Y033574D01*
X041804Y033657D01*
X041863Y03376D01*
X041894Y033874D01*
Y033992D01*
X041863Y034106D01*
X041804Y034209D01*
X041721Y034293D01*
X041618Y034352D01*
X041504Y034382D01*
D02*
G37*
G36*
X040504D02*
X040386D01*
X040271Y034352D01*
X040169Y034293D01*
X040085Y034209D01*
X040026Y034106D01*
X039996Y033992D01*
Y033874D01*
X040026Y03376D01*
X040085Y033657D01*
X040169Y033574D01*
X040271Y033514D01*
X040386Y033484D01*
X040504D01*
X040618Y033514D01*
X040721Y033574D01*
X040804Y033657D01*
X040863Y03376D01*
X040894Y033874D01*
Y033992D01*
X040863Y034106D01*
X040804Y034209D01*
X040721Y034293D01*
X040618Y034352D01*
X040504Y034382D01*
D02*
G37*
G36*
X012397Y04201D02*
X012279D01*
X012164Y04198D01*
X012062Y04192D01*
X011978Y041837D01*
X011919Y041734D01*
X011889Y04162D01*
Y041502D01*
X011919Y041388D01*
X011978Y041285D01*
X012062Y041201D01*
X012164Y041142D01*
X012279Y041112D01*
X012397D01*
X012511Y041142D01*
X012614Y041201D01*
X012697Y041285D01*
X012756Y041388D01*
X012787Y041502D01*
Y04162D01*
X012756Y041734D01*
X012697Y041837D01*
X012614Y04192D01*
X012511Y04198D01*
X012397Y04201D01*
D02*
G37*
G36*
Y04101D02*
X012279D01*
X012164Y04098D01*
X012062Y04092D01*
X011978Y040837D01*
X011919Y040734D01*
X011889Y04062D01*
Y040502D01*
X011919Y040388D01*
X011978Y040285D01*
X012062Y040201D01*
X012164Y040142D01*
X012279Y040112D01*
X012397D01*
X012511Y040142D01*
X012614Y040201D01*
X012697Y040285D01*
X012756Y040388D01*
X012787Y040502D01*
Y04062D01*
X012756Y040734D01*
X012697Y040837D01*
X012614Y04092D01*
X012511Y04098D01*
X012397Y04101D01*
D02*
G37*
G36*
Y04001D02*
X012279D01*
X012164Y03998D01*
X012062Y03992D01*
X011978Y039837D01*
X011919Y039734D01*
X011889Y03962D01*
Y039502D01*
X011919Y039388D01*
X011978Y039285D01*
X012062Y039201D01*
X012164Y039142D01*
X012279Y039112D01*
X012397D01*
X012511Y039142D01*
X012614Y039201D01*
X012697Y039285D01*
X012756Y039388D01*
X012787Y039502D01*
Y03962D01*
X012756Y039734D01*
X012697Y039837D01*
X012614Y03992D01*
X012511Y03998D01*
X012397Y04001D01*
D02*
G37*
G36*
Y03801D02*
X012279D01*
X012164Y03798D01*
X012062Y03792D01*
X011978Y037837D01*
X011919Y037734D01*
X011889Y03762D01*
Y037502D01*
X011919Y037388D01*
X011978Y037285D01*
X012062Y037201D01*
X012164Y037142D01*
X012279Y037112D01*
X012397D01*
X012511Y037142D01*
X012614Y037201D01*
X012697Y037285D01*
X012756Y037388D01*
X012787Y037502D01*
Y03762D01*
X012756Y037734D01*
X012697Y037837D01*
X012614Y03792D01*
X012511Y03798D01*
X012397Y03801D01*
D02*
G37*
G36*
Y03701D02*
X012279D01*
X012164Y03698D01*
X012062Y03692D01*
X011978Y036837D01*
X011919Y036734D01*
X011889Y03662D01*
Y036502D01*
X011919Y036388D01*
X011978Y036285D01*
X012062Y036201D01*
X012164Y036142D01*
X012279Y036112D01*
X012397D01*
X012511Y036142D01*
X012614Y036201D01*
X012697Y036285D01*
X012756Y036388D01*
X012787Y036502D01*
Y03662D01*
X012756Y036734D01*
X012697Y036837D01*
X012614Y03692D01*
X012511Y03698D01*
X012397Y03701D01*
D02*
G37*
G36*
X012787Y03601D02*
X011889D01*
Y035112D01*
X012787D01*
Y03601D01*
D02*
G37*
%LPD*%
D21*
X035961Y039567D02*
X041784D01*
X023425Y042126D02*
Y04411D01*
X034249Y038856D02*
X034473D01*
X03937Y043701D02*
X03937D01*
X034946Y039329D02*
X034998D01*
X03937Y043701D01*
X034173Y03878D02*
X034249Y038856D01*
X034473D02*
X034946Y039329D01*
X039325Y037841D02*
X039567Y037598D01*
Y036614D02*
Y037598D01*
X037112Y037841D02*
X039325D01*
X040172Y036009D02*
X040369D01*
X039567Y036614D02*
X040172Y036009D01*
X040369D02*
X040445Y035933D01*
X036173Y03878D02*
X037112Y037841D01*
X038762Y038191D02*
X041613D01*
X038173Y03878D02*
X038762Y038191D01*
X039961Y040748D02*
Y043942D01*
X039123Y04478D02*
X039961Y043942D01*
X035173Y03878D02*
X035961Y039567D01*
X041613Y038191D02*
X042126Y037678D01*
Y035614D02*
Y037678D01*
X041445Y034933D02*
X042126Y035614D01*
D23*
X030536Y035551D02*
X030544Y035559D01*
Y037175D01*
X035646Y035559D02*
X035654Y035551D01*
X035646Y035559D02*
Y037175D01*
X025088Y037992D02*
X030512D01*
X024474Y03849D02*
Y042387D01*
X024884Y03808D02*
X025D01*
X025088Y037992D01*
X024474Y03849D02*
X024884Y03808D01*
X020844Y047813D02*
X035685D01*
X035685Y047813D02*
X039229D01*
X027756Y048835D02*
X029331D01*
X026181D02*
X027756D01*
X032097Y048824D02*
X033706D01*
X033717Y048813D01*
X032087Y048835D02*
X032097Y048824D01*
X035685Y047813D02*
X035685Y047813D01*
X020378Y04478D02*
X025123D01*
X020276Y044882D02*
X020378Y04478D01*
X035685Y048813D02*
X039229D01*
X033717D02*
X035685D01*
X033717Y047813D02*
X035685D01*
X026181Y047835D02*
X026181Y047835D01*
X020276Y044882D02*
Y047244D01*
Y036024D02*
Y044882D01*
Y047244D02*
X020844Y047813D01*
X027233Y035324D02*
X027556Y035648D01*
Y036005D01*
X027575Y036024D01*
X025591Y035324D02*
X027233D01*
X021574D02*
X025591D01*
Y036008D01*
X025575Y036024D02*
X025591Y036008D01*
X021358Y035541D02*
X021574Y035324D01*
X020759Y035541D02*
X021358D01*
X020276Y036024D02*
X020759Y035541D01*
X024474Y042387D02*
X025723Y043636D01*
X02783D01*
X030512Y037992D02*
X034829D01*
X030552Y037183D02*
Y037952D01*
X030512Y037992D02*
X030552Y037952D01*
X028123Y043929D02*
Y04478D01*
X02783Y043636D02*
X028123Y043929D01*
X034829Y037992D02*
X035638Y037183D01*
X030544Y037175D02*
X030552Y037183D01*
X035638D02*
X035646Y037175D01*
D24*
X034123Y04478D02*
D03*
X033123D02*
D03*
X031123D02*
D03*
X030123D02*
D03*
X029123D02*
D03*
X028123D02*
D03*
X027123D02*
D03*
X026123D02*
D03*
X025123D02*
D03*
X032123D02*
D03*
X035123D02*
D03*
X036123D02*
D03*
X037123D02*
D03*
X038123D02*
D03*
X039173Y03878D02*
D03*
X038173D02*
D03*
X037173D02*
D03*
X036173D02*
D03*
X035173D02*
D03*
X032173D02*
D03*
X025173D02*
D03*
X026173D02*
D03*
X027173D02*
D03*
X028173D02*
D03*
X029173D02*
D03*
X030173D02*
D03*
X031173D02*
D03*
X033173D02*
D03*
X034173D02*
D03*
X040445Y036933D02*
D03*
Y035933D02*
D03*
Y034933D02*
D03*
Y033933D02*
D03*
X041445D02*
D03*
Y034933D02*
D03*
Y035933D02*
D03*
X036634Y035551D02*
D03*
X037634D02*
D03*
X038634D02*
D03*
X031552Y037183D02*
D03*
X032552D02*
D03*
X033552D02*
D03*
X036638D02*
D03*
X037638D02*
D03*
X038638D02*
D03*
X031524Y035551D02*
D03*
X032524D02*
D03*
X033524D02*
D03*
X028575Y036024D02*
D03*
X027575D02*
D03*
X026575D02*
D03*
X021388Y041511D02*
D03*
Y042511D02*
D03*
Y040511D02*
D03*
Y039511D02*
D03*
Y038511D02*
D03*
Y037511D02*
D03*
Y036511D02*
D03*
X012338Y042561D02*
D03*
Y040561D02*
D03*
Y039561D02*
D03*
Y038561D02*
D03*
Y037561D02*
D03*
Y036561D02*
D03*
Y041561D02*
D03*
D25*
X039123Y04478D02*
D03*
X035634Y035551D02*
D03*
X030552Y037183D02*
D03*
X035638D02*
D03*
X030524Y035551D02*
D03*
X025575Y036024D02*
D03*
D26*
X041445Y036933D02*
D03*
X012338Y035561D02*
D03*
X021388Y035511D02*
D03*
D27*
X026181Y046835D02*
D03*
Y047835D02*
D03*
X027756Y046835D02*
D03*
Y047835D02*
D03*
X029331Y046835D02*
D03*
Y047835D02*
D03*
X032087Y046835D02*
D03*
Y047835D02*
D03*
X033717Y046813D02*
D03*
Y047813D02*
D03*
X035685Y046813D02*
D03*
Y047813D02*
D03*
X037457Y046829D02*
D03*
Y047829D02*
D03*
X039229Y046813D02*
D03*
Y047813D02*
D03*
D28*
X026181Y048835D02*
D03*
X027756D02*
D03*
X029331D02*
D03*
X032087D02*
D03*
X033717Y048813D02*
D03*
X035685D02*
D03*
X037457Y048829D02*
D03*
X039229Y048813D02*
D03*
D29*
X022264Y034094D02*
D03*
X030728Y034016D02*
D03*
X030709Y049055D02*
D03*
X022441D02*
D03*
X011004Y042323D02*
D03*
D30*
X041784Y039567D02*
D03*
X023425Y04411D02*
D03*
Y042126D02*
D03*
X03937Y043701D02*
D03*
X039961Y040748D02*
D03*
M02*
